<!-- Generator: Adobe Illustrator 24.3.0, SVG Export Plug-In  -->
<svg version="1.1" xmlns="http://www.w3.org/2000/svg" xmlns:xlink="http://www.w3.org/1999/xlink" x="0px" y="0px"
	 width="110.38px" height="146.48px" viewBox="0 0 110.38 146.48"
	 style="overflow:visible;enable-background:new 0 0 110.38 146.48;" xml:space="preserve">
<defs>
</defs>
<path d="M94.07,105.85c14.3-31.1,12.7-76.24,12.7-76.24H92.8l4.35-6.41c0.2-0.29,0.33-0.63,0.39-0.98l3.12-19.39
	c0.15-0.94-0.25-1.88-1.04-2.41C98.84-0.11,97.82-0.14,97,0.34L80.14,10.39c-0.31,0.18-0.57,0.43-0.77,0.73L66.82,29.61H34.2
	l-7.42-12l8.98-5.55c0.58-0.36,0.92-0.99,0.89-1.64c-0.03-0.65-0.43-1.21-1.03-1.46L13.95,0.13c-0.56-0.23-1.21-0.15-1.73,0.19
	c-0.52,0.35-0.84,0.92-0.84,1.52l-0.11,22.29c0,0.63,0.34,1.19,0.9,1.48c0.23,0.12,0.48,0.18,0.73,0.19
	c0.37,0.01,0.75-0.08,1.08-0.29l8.64-5.34l5.84,9.44H4.83c0,0-1.15,32.58,7.28,61.45l-0.78-0.53c-0.62-0.42-1.39-0.53-2.1-0.31
	c-0.71,0.22-1.28,0.76-1.55,1.45c-0.88,2.28-4.95,13.82,1.11,17.42c2.29,1.36,0.24,6.15-0.12,6.95l-6.69,9.76
	c-0.05,0.08-0.1,0.16-0.15,0.25c-1.81,3.46-3.72,11.1,2.04,15.22l0.2,0.14c1.6,1.03,3.23,1.44,4.81,1.44
	c4.27,0,8.18-3.03,10.04-5.19c0.06-0.07,0.11-0.14,0.17-0.21l6.7-9.77c0.45-0.46,2.7-2.7,4.68-3.04
	c6.61,6.19,14.91,10.03,25.34,10.03c8.08,0,14.88-2.31,20.61-6.22l11.07,18.03l4.83-17.82l18.08,3.76L94.07,105.85z M14.89,20.89
	l0.08-16.47l16.01,6.53L14.89,20.89z M89.49,34.5h12.45c-0.06,11.69-1.21,42.73-10.97,66.29l-2.96-4.82l-15.86-5L62.12,74.76
	L89.49,34.5z M63.51,34.5L49.76,54.77L37.22,34.5H63.51z M9.67,34.5h21.81l15.28,24.7L21.03,97.12l-2.41-1.63
	C10.71,72.77,9.72,45.33,9.67,34.5z M33.4,108.48c-0.76,1.12-0.47,2.63,0.65,3.39l9.04,6.14c-3.22,2.39-6.72,4.03-7.89,3.12
	c-4.77-3.68-10.51,0.4-13.15,3.4c-0.07,0.07-0.13,0.15-0.18,0.24l-6.71,9.79c-0.62,0.68-4.85,5.05-8.38,2.78l-0.1-0.07
	c-3.42-2.45-0.96-8.01-0.56-8.85l6.7-9.78c0.06-0.09,0.11-0.18,0.16-0.27c1.81-3.56,3.49-10.41-1.69-13.48
	c-1.27-0.76-1.04-4.62-0.01-8.49l9.04,6.14c0.54,0.36,1.19,0.5,1.83,0.38c0.64-0.12,1.2-0.49,1.56-1.03L83.1,14.31l11.91-7.09
	L92.81,20.9L33.4,108.48z M59.6,78.53l8.73,14.11l-2.76,16.7l8.76,14.27c-5.29,3.68-11.25,5.48-18.06,5.48
	c-5.98,0-11.3-1.42-16.1-4.25c4.13-1.5,8.01-4.9,9.11-5.92c0.55-0.51,0.84-1.23,0.78-1.98c-0.06-0.74-0.45-1.42-1.06-1.84
	l-9.71-6.59L59.6,78.53z M90.67,123.47l-2.25,1.38l-2.6,9.59l-15.7-25.57l1.55-9.37l11.9,19.24c0.41,0.66,1.11,1.03,1.85,1.06
	c0.48,0.02,0.98-0.1,1.44-0.38c1.15-0.71,1.54-2.16,0.87-3.24L75.99,97.18l8.71,2.75l15.7,25.57L90.67,123.47z"/>
</svg>
