<!-- Generator: Adobe Illustrator 24.3.0, SVG Export Plug-In  -->
<svg version="1.1" xmlns="http://www.w3.org/2000/svg" xmlns:xlink="http://www.w3.org/1999/xlink" x="0px" y="0px"
	 width="111.41px" height="136.15px" viewBox="0 0 111.41 136.15"
	 style="overflow:visible;enable-background:new 0 0 111.41 136.15;" xml:space="preserve">
<defs>
</defs>
<path d="M99.3,21.17c-0.24-6.63-1.03-13.14-2.4-19.39C96.68,0.74,95.76,0,94.7,0H16.68c-1.06,0-1.98,0.74-2.2,1.77
	c-1.36,6.26-2.16,12.77-2.4,19.41C4.27,27.06,0,34.38,0,41.98c0,10.31,7.59,19.74,20.91,26.09c1.09,2.31,2.27,4.54,3.55,6.64
	c6.62,10.91,15.08,17.88,24.31,20.2l1.77,22.59H37.79c-0.83,0-1.5,0.67-1.5,1.5v3.19H22.82c-0.83,0-1.5,0.67-1.5,1.5v10.94
	c0,0.83,0.67,1.5,1.5,1.5h65.74c0.83,0,1.5-0.67,1.5-1.5v-10.94c0-0.83-0.67-1.5-1.5-1.5H75.1v-3.19c0-0.83-0.67-1.5-1.5-1.5H60.84
	l1.77-22.59c9.23-2.33,17.68-9.29,24.31-20.2c1.28-2.1,2.45-4.32,3.54-6.62c13.17-6.29,20.96-15.93,20.96-26.11
	C111.41,34.39,107.12,27.04,99.3,21.17z M16.25,55.78c-4.27-4.15-6.57-8.93-6.57-13.8c0-3.03,0.89-6.03,2.59-8.87
	C12.8,41.05,14.15,48.69,16.25,55.78z M2.25,41.98c0-6.4,3.44-12.65,9.76-17.87c0,0.4-0.02,0.79-0.02,1.19
	c0,1.78,0.05,3.55,0.13,5.3c-2.6,3.56-3.96,7.44-3.96,11.38c0,5.99,3.16,11.81,8.96,16.62c0.7,2.13,1.48,4.2,2.32,6.2
	C8.6,58.93,2.25,50.61,2.25,41.98z M72.09,120.52v3.19c0,0.83,0.67,1.5,1.5,1.5h13.47v7.93H24.32v-7.93h13.47
	c0.83,0,1.5-0.67,1.5-1.5v-3.19h12.88c0.42,0,0.82-0.18,1.1-0.48c0.28-0.31,0.43-0.72,0.39-1.14l-1.84-23.38
	c1.28,0.18,2.56,0.27,3.86,0.27c1.3,0,2.58-0.09,3.86-0.27l-1.84,23.38c-0.03,0.42,0.11,0.83,0.39,1.14
	c0.28,0.31,0.68,0.48,1.1,0.48H72.09z M55.8,93.1c-22.73,0-41.16-30.5-41.16-68.13c0-7.84,0.81-15.36,2.28-22.37h77.75
	c1.47,7.01,2.28,14.53,2.28,22.37C96.96,62.6,78.53,93.1,55.8,93.1z M99.11,33.06c1.72,2.86,2.62,5.88,2.62,8.92
	c0,4.89-2.33,9.69-6.63,13.85C97.22,48.71,98.58,41.04,99.11,33.06z M91.92,64.83c0.84-2,1.62-4.07,2.32-6.19
	c5.83-4.81,9-10.64,9-16.66c0-3.95-1.37-7.85-3.99-11.42c0.08-1.74,0.13-3.49,0.13-5.26c0-0.41-0.01-0.81-0.02-1.22
	c6.33,5.23,9.79,11.5,9.79,17.9C109.16,50.65,102.8,58.96,91.92,64.83z"/>
<g>
	<path d="M85.43,39.59H79.9C79,27.03,68.5,17.07,55.71,17.07s-23.3,9.95-24.2,22.52h-5.52c-0.55,0-1,0.45-1,1
		c0,16.94,13.78,30.72,30.72,30.72s30.72-13.78,30.72-30.72C86.43,40.04,85.98,39.59,85.43,39.59z M55.71,18.07
		c12.24,0,22.3,9.5,23.19,21.52h-3.18c-0.52-10.58-9.3-19.03-20.01-19.03S36.22,29.01,35.7,39.59h-3.18
		C33.41,27.58,43.47,18.07,55.71,18.07z M36.67,41.59c0.55,0,1-0.45,1-1c0-9.94,8.09-18.03,18.03-18.03s18.03,8.09,18.03,18.03
		c0,0.55,0.45,1,1,1h4.22C78.83,54.3,68.45,64.6,55.71,64.6S32.59,54.3,32.45,41.59H36.67z M55.71,69.31
		c-15.5,0-28.17-12.34-28.7-27.72h4.44C31.59,54.86,42.41,65.6,55.71,65.6s24.12-10.75,24.26-24.01h4.44
		C83.88,56.97,71.21,69.31,55.71,69.31z"/>
	<path d="M49.42,44.81l-1.34,7.8c-0.03,0.16,0.04,0.32,0.17,0.42c0.13,0.1,0.31,0.11,0.45,0.03l7-3.68l7,3.68
		c0.06,0.03,0.13,0.05,0.2,0.05c0.09,0,0.18-0.03,0.25-0.08c0.13-0.1,0.2-0.26,0.17-0.42l-1.34-7.8l5.67-5.52
		c0.12-0.11,0.16-0.28,0.11-0.44c-0.05-0.15-0.18-0.27-0.34-0.29l-7.83-1.14l-3.5-7.09c-0.14-0.29-0.62-0.29-0.77,0l-3.5,7.09
		l-7.83,1.14c-0.16,0.02-0.29,0.14-0.34,0.29c-0.05,0.15-0.01,0.32,0.11,0.44L49.42,44.81z M52.17,38.23
		c0.14-0.02,0.26-0.11,0.32-0.23l3.22-6.52L58.92,38c0.06,0.13,0.18,0.21,0.32,0.23l7.19,1.05l-5.21,5.07
		c-0.1,0.1-0.15,0.24-0.12,0.38l1.23,7.17l-6.44-3.38c-0.12-0.07-0.27-0.07-0.4,0l-6.43,3.38l1.23-7.17
		c0.02-0.14-0.02-0.28-0.12-0.38l-5.21-5.07L52.17,38.23z"/>
</g>
</svg>
