<!-- Generator: Adobe Illustrator 24.3.0, SVG Export Plug-In  -->
<svg version="1.1" xmlns="http://www.w3.org/2000/svg" xmlns:xlink="http://www.w3.org/1999/xlink" x="0px" y="0px"
	 width="121.14px" height="151px" viewBox="0 0 121.14 151" style="overflow:visible;enable-background:new 0 0 121.14 151;"
	 xml:space="preserve">
<defs>
</defs>
<g>
	<path d="M97.63,64.28c0.02,0.04,0.1-0.01,0.2-0.07l-0.25-0.31c-0.24,0.08-0.52,0.2-0.81,0.33c0.33-0.2,0.51-0.27,0.74-0.41
		l-0.12-0.14c-0.28,0.08-0.71,0.37-1.12,0.35c0.55-0.28,0.79-0.48,0.87-0.65l0,0c-0.43,0.32-0.79,0.48-0.95,0.52
		c0.4-0.24,0.69-0.42,0.91-0.57l-0.46-0.57c-0.16,0.11-0.32,0.22-0.46,0.36l0.24-0.05c-0.66,0.49-0.48,0.19-0.58,0.14
		c-0.19,0.05-0.3,0.05-0.06,0c0.03-0.01,0.05,0,0.06,0c0.14-0.04,0.32-0.1,0.46-0.2c-1.1,0.16-0.67-0.8-1.61-0.84
		c0.28-0.14,0.85-0.26,0.96-0.53c0-0.07-0.02-0.11-0.04-0.15c-0.03-0.03-0.05-0.06-0.08-0.09c-0.35-0.26-1.47,0.16-2.25,0.13
		c1.46-1.08,0.66,0.22,1.89-0.57c-0.06-0.07-0.11-0.14-0.17-0.21c-0.64-0.18-1.43-0.27-2.44-0.25c2.12-1.8-1.3,0.13,0.22-1.47
		c-0.73,0.57-1.13,0.6-1.28,0.43c-0.01,0.01-0.01,0.01-0.02,0.01l0-0.04c-0.06-0.09-0.08-0.21-0.04-0.35l0.04,0.35
		c0.01,0.01,0.01,0.02,0.02,0.03c0.66-0.38,0.54-0.58,1.02-0.85c-0.8,0.33-1.4,0.08,0.01-0.93c0,0,0,0,0,0
		c-1.37,0.9-0.14-0.42-1.23,0.16c-0.09,0.14-0.24,0.32-0.53,0.59l0.27-0.45c0.11-0.07,0.18-0.1,0.26-0.14
		c0.39-0.58-0.61-0.22-0.36-0.79c-0.84,0.73-0.61,0.05-1.05,0.23c0.08-0.02,0.24-0.05,0.36-0.16c0.72-0.63-0.89,0.19-0.53-0.28
		c0.28-0.3,0.84-0.58,0.84-0.73c-0.64,0.45-1.66,0.6-0.98-0.1c0.04,0.07,0.37-0.16,0.64-0.3c-1.58,0.1-0.76-1.57-2.55-1.35
		l1.16-0.65c0.19-0.25,0.25-0.38,0.22-0.43l-0.01-0.01c-0.21-0.15-2.2,1.33-2.27,0.97c-0.15-1.31,0.7-3.39-0.65-3.81
		c-0.36,0.16-0.36,0.31-0.8,0.65c0.08-0.17,0.96-0.84,0.31-0.54l-0.56,0.44c1.25-1.52-1.83-0.48,0.23-2.44l-0.05-0.06
		c-0.65,0.09-0.33-0.46-0.54-0.68l-0.01-0.01c-0.11-0.11-0.35-0.14-0.89,0.02c0.16-0.21,0.37-0.33,0.56-0.43l-0.23-0.29l-0.44,0.07
		l0.1-0.04c-1.05,0.41-0.73-0.26-0.39-0.97c-0.37-0.47-0.74-0.95-1.1-1.43c-0.22-0.06-0.35-0.15-0.56-0.3
		c0.1-0.04,0.18-0.07,0.25-0.11c-0.08-0.1-0.16-0.21-0.24-0.31c-0.07,0.02-0.13,0.05-0.21,0.06c-0.1-0.09-0.11-0.25-0.07-0.43
		c-0.19-0.25-0.39-0.5-0.58-0.75c-0.16,0.07-0.35,0.18-0.68,0.41c-0.31-0.32-0.82-0.26-1.13-0.71l0.31-0.24
		c-1.23,0.7,0.3-0.8-0.41-0.41c0.36-0.24,0.56-0.33,0.8-0.5c-0.02-0.02-0.03-0.04-0.05-0.06L79.4,41.4
		c0.07-0.03,0.17-0.07,0.28-0.13c-0.06-0.08-0.12-0.16-0.18-0.24c-0.19,0.16-0.34,0.31-0.4,0.42c-0.31-0.45-1.13-0.53-1.23-1.05
		l0.72-0.45c-0.32-0.03-0.51-0.22-0.34-0.56c-0.03-0.04-0.07-0.09-0.1-0.13c-0.18,0.11-0.36,0.23-0.48,0.34
		c-1.04,0.38,0.81-0.67,0.11-0.47c0.07-0.02,0.15-0.05,0.22-0.07c-0.05-0.07-0.11-0.14-0.17-0.22l-0.58,0.03
		c0.11-0.08,0.23-0.19,0.36-0.32c-0.11-0.15-0.22-0.3-0.33-0.44l-0.23,0.03L77.19,38c-0.07-0.1-0.15-0.2-0.22-0.3l-0.01,0
		l-0.23,0.17l0-0.06l0.23-0.1l0.01-0.01c-0.05-0.07-0.11-0.14-0.16-0.21c-0.28,0.14-0.49,0.23-0.49,0.16
		c0.07-0.2,0.14-0.37,0.22-0.51c-1.09-1.47-2.16-2.94-3.17-4.39c-0.04,0.01-0.09,0.02-0.13,0.03c0.04-0.01,0.07-0.03,0.11-0.06
		c-0.02-0.04-0.05-0.07-0.07-0.11c-0.26,0.2-0.43,0.33-0.31,0.1c0.08-0.03,0.17-0.09,0.27-0.16c-0.03-0.04-0.05-0.08-0.08-0.12
		l-0.68,0.31c0.11-0.31,0.2-0.64,0.26-0.93c-0.22-0.33-0.45-0.67-0.67-1l-0.73-1.12c-0.05-0.01-0.1-0.03-0.13-0.05l0.07-0.05
		L70.91,29c-0.1,0.02-0.17,0.01-0.18-0.07l0.1-0.06l-0.18-0.28c-0.1,0.06-0.19,0.11-0.27,0.16c-0.75,0.3-0.43-0.03,0.06-0.48
		l-0.31-0.48c-0.15,0.11-0.31,0.22-0.53,0.33c0.08-0.57-0.83,0.02-0.76-0.55c0.41-0.35,0.62-0.53,0.75-0.61l-0.12-0.19
		c-0.04,0.04-0.09,0.07-0.12,0.11c-0.13-0.12-0.1-0.16,0.04-0.23l-0.44-0.69c-0.09,0.02-0.2,0.06-0.35,0.12
		c0.14-0.08,0.22-0.14,0.3-0.2l-0.09-0.14c-0.4,0.14-1.07,0.46-1.39,0.5c0.29-0.29,0.8-0.62,1.14-0.88l-0.13-0.2
		c-0.69,0.48-1.53,1.18-1.65,0.95c0,0,0.71-0.2,1.12-0.66c-0.51,0.09-0.13-0.11,0.37-0.56l-0.21-0.32c-0.12,0.06-0.34,0.2-0.79,0.5
		c0.43-0.36,0.61-0.51,0.72-0.61l-0.12-0.19c-0.34,0.13-0.66,0.18-1.21,0.54l-3.46,4.72c0.06,0.02,0.1,0.02,0.12,0.01
		c0.37,0.22,1.35,1.53,1.41,1.84c-0.37,0.28-1.35-0.85-2-1.21l-0.16,0.21l0.36,0.73l-0.49-0.4c-0.04-0.02-0.06-0.03-0.08-0.04
		c-0.01,0.01-0.02,0.03-0.03,0.04c0.07,0.1,0.28,0.31,0.34,0.38c-0.24-0.21-0.36-0.26-0.44-0.24c-0.05,0.06-0.09,0.12-0.14,0.19
		c-0.03,0.09-0.06,0.19-0.14,0.21l0.67,0.47c0.75,1.1-0.42,0.45-1.15,0.17c-0.09,0.13-0.19,0.25-0.28,0.38l0.69,0.89l-0.86-0.65
		C61,32.48,61,32.49,60.99,32.5c0.43,0.56,1.02,1.12,0.54,1.07c-2.27-0.59-0.99,1.91-2.67,1.83c0.2,0.15,0.28,0.18,0.46,0.25
		c-0.22-0.1-0.39-0.15-0.53-0.19c-0.13,0.18-0.27,0.36-0.4,0.54c0.35,0.88,1.54,2.39,0.07,1.82l-0.31-0.33
		c-0.06,0.37-0.22-0.05-0.63-0.34c-0.03,0.04-0.05,0.07-0.08,0.11c0.67,0.73,0.26,0.9,0.5,1.37c-0.21-0.22-0.13-0.27-0.25-0.45
		c-0.15-0.1-0.42-0.3-0.61-0.43c-0.03,0.04-0.06,0.08-0.09,0.12c1.26,1.42,0.79,1.73,0.99,2.43c-0.56-0.42-1.18-0.69-1.98-1.13
		l-0.19,0.25c0.15,0.15,0.3,0.31,0.46,0.47c0.06,0.03,0.14,0.07,0.23,0.12c0,0.02,0.03,0.06,0.04,0.08c0.02-0.1,0.01-0.17-0.06-0.21
		c0.82,0.47,0.56,0.49,1.43,1.21c-0.12,0.08,0,0.55-0.67,0.02c-0.06,0.05-0.2,0.01-0.38-0.03c0.1,0.15,0.14,0.26,0.02,0.24
		l-0.07-0.1c-0.13-0.09-0.21-0.15-0.29-0.2c-0.54-0.11,0.5,1.27,0.95,1.94c-0.94-1.08-1.26-0.99-2.04-1.65
		c0.05,0.07,0.27-0.1,0.51-0.34c-0.1-0.05-0.25-0.16-0.54-0.39c-1.03-0.48,0.41,1-0.45,0.84c-0.06-0.08-0.16-0.21-0.35-0.38
		l-0.13,0.17c0.15,0.2,0.4,0.47,0.62,0.68c-0.28-0.22-0.54-0.38-0.77-0.49l-0.28,0.37c0.36,0.4,0.53,0.59,0.35,0.7l-0.47-0.54
		l-0.13,0.17c0.14,0.22,0.46,0.54,0.23,0.51c0.03-0.03-0.18-0.23-0.36-0.34l-0.1,0.13c0.14,0.38,0.47,0.71,1.27,1.63L54,43.26
		c0.34,0.63,1.05,1.9-0.11,0.93c1.83,1.43,0.56,1.23,0.37,1.38c0-0.11-0.36-0.43-0.55-0.6c0.86,1.36-0.6,0.79-0.9,1.18l-1.34-1.03
		c-0.12,0.24,2.38,2.45,2.15,2.62l-0.55-0.6c-0.12,0.56-0.36,0.62-0.84,0.75l-0.86-0.74c0.31,0.45,0.19,0.59,0.5,1.04
		c-2.32-1.52,0.26,1.94-2.48,0.43l1.59,1.39c-0.18,0.15-0.05,0.65-1.33-0.29l0.06-0.02c-1.22-1.06-0.18,0.15-0.54,0.03
		c0.06,0.2,0.8,0.96,1.1,1.09c-1.22-0.22-0.96,1.2-2.67,0.26c0.13,0.92,1.11,2.36,0.51,2.73l-0.19-0.17c-0.34-0.01-1-0.04-2.18-0.97
		l-0.14,0.19c0.36,0.78,1.38,2.02,0.57,1.97l-0.43-0.53c-0.36-0.11,0.13,0.61,0.25,0.79c-0.06,0.02-0.3-0.24-0.49-0.4
		c-0.55-0.28,0.13,0.39,0.19,0.59l-0.43-0.42c-1.22-0.43,0.14,1.66-0.47,1.92c-0.07-0.2-0.61-0.58-0.86-0.73
		c1.35,1.45,0.56,1.66,0.75,2.14l-0.49-0.61c0.68,1.2-1.85-1.01-1.16,0.19l1.04,0.52c-0.38-0.07-0.2,0.3,0.5,0.83
		c-0.64-0.25-1.16-0.95-1.53-0.81c-0.43-0.34-0.13-0.43-0.74-0.8l-0.16-0.06l-0.25,0.32c0.19,0.26,0.39,0.51,0.81,0.74
		c-0.29-0.09-0.6-0.35-0.89-0.63l-0.2,0.26c0.08,0.09,0.31,0.27,0.9,0.68c-0.29,0.63-1.89,0.02-1.4,1.19
		c-0.26-0.18-0.47-0.3-0.64-0.37l-1.91,2.53l-2.57,3.39l1.82,2.33c0.07-0.09,0.47-0.21,0.57-0.17c0.11,0.18-0.22,0.33-0.33,0.49
		l0.08,0.11l0.23,0l-0.12,0.1c-0.01,0.02-0.01,0.03-0.01,0.03l0,0.01c0.02,0,0.1-0.04,0.13-0.06c-0.19,0.14,0.06,0.19,0.09,0.28
		l0.14-0.15c0.39-0.08,0.14,0.29,0.1,0.5c0.03,0.04,0.07,0.08,0.1,0.13l0.34-0.11l-0.21,0.22c0.19-0.05,0.38-0.19,0.39-0.02
		c-0.1,0.71,0.72,0.69,0.77,1.27c0.04-0.04,0.05-0.07,0.07-0.12c-0.31,0.81,1.02,0.02,0.81,0.69l-0.1,0.05
		c0.17,0.11-0.1,0.05-0.14,0.27c0.3-0.21,0.38,0.01,0.55,0.01c-0.07,0.03-0.09,0-0.15,0.01c-0.05,0.07-0.21,0.22-0.13,0.22
		c0.49-0.24,0.62,0,0.86,0.05c-0.17,0.17-0.23,0.44-0.47,0.75c0,0,0,0,0,0c0.08-0.04,0.24-0.13,0.4-0.22
		c0.01-0.02,0.02-0.04,0.03-0.06c0.01,0,0.02,0,0.03,0c-0.04-0.03-0.06-0.03-0.07-0.01c0.13-0.21,0.15-0.12,0.36-0.3
		c0.03,0.06,0.19,0.1,0.04,0.24c0.02,0.03,0.01,0.07,0.01,0.13c0.05-0.01,0.08,0,0.08,0.04l-0.03,0.01
		c-0.03,0.03-0.04,0.05-0.06,0.07c-0.01,0.17,0.43,0.04,0.64,0c-0.34,0.15-0.29,0.28-0.49,0.44c0.02,0-0.05-0.11-0.14-0.24
		c-0.01,0.03-0.04,0.06-0.11,0.12c-0.12,0.28,0.34,0.03,0.32,0.31c-0.03,0.01-0.09,0.03-0.16,0.09c-0.01,0.1,0.19,0.02,0.32-0.06
		c-0.18,0.17-0.23,0.41-0.09,0.4c0.2-0.08,0.27-0.15,0.33-0.04l-0.17,0.07c-0.02,0.18,0.2-0.01,0.23,0.08
		c-0.03,0-0.11,0.07-0.12,0.11c0.17,0.05,0.25-0.01,0.59-0.15l-0.23,0.16c0.21-0.01,0.62-0.04,0.33,0.2
		c0.42-0.4,0.41,0.02,0.47,0.11c-0.04-0.02-0.14,0.05-0.19,0.09c0.44-0.07,0.31,0.35,0.46,0.53l-0.3,0.3
		c0.09,0.08,0.76-0.42,0.83-0.31l-0.19,0.09c0.2,0.14,0.24,0.24,0.3,0.43l-0.22,0.18c0.15-0.03,0.2,0.04,0.35,0.01
		c-0.43,0.56,0.68,0.25,0.27,0.96l0.42-0.32c0.06,0.09,0.23,0.13-0.04,0.43l-0.01-0.02c-0.32,0.25,0.06,0.09,0.04,0.2
		c0.07,0.01,0.3-0.12,0.34-0.2c-0.02,0.4,0.47,0.55,0.22,1c0.32,0.12,0.78,0.02,0.94,0.3l-0.05,0.04c0.01,0.13,0.04,0.38-0.3,0.66
		c0.22,0.11,0.78-0.16,0.81,0.17l-0.17,0.06c-0.02,0.11,0.21,0.06,0.27,0.05c0.01,0.02-0.07,0.07-0.12,0.1
		c-0.07,0.15,0.13,0.02,0.2,0.04l-0.13,0.08c-0.1,0.36,0.58,0.24,0.7,0.5c-0.07-0.01-0.18,0.12-0.22,0.18
		c0.45-0.23,0.56,0.09,0.72,0.11l-0.19,0.07c0.39-0.03-0.27,0.48,0.12,0.45l0.13-0.28c-0.01,0.12,0.12,0.12,0.27-0.03
		c-0.06,0.19-0.28,0.25-0.21,0.4c-0.1,0.09-0.15-0.03-0.25,0.12l-0.14,0.4c0,0,0,0,0,0c0.12-0.3,0.34-0.14,0.47-0.37
		c-0.04,0.2-0.4,0.29-0.47,0.37c0,0,0,0,0,0.01c-0.02,0.03-0.01,0.06,0.06,0.09c0.46-0.4,0.14,0.12,0.53-0.34
		c0.24,0.21,0.1,0.68,0.49,0.71c-0.39,0.46,0.33,0.43-0.28,0.9c0.09,0.12,0.29,0.12,0.59,0c0.03-0.06-0.07-0.03-0.12-0.03
		c0.18-0.09,0.32,0.03,0.36,0.09c-0.2,0.03-0.42,0-0.69,0.13c0.15,0.06,0.49,0.03,0.61,0.03l-0.28,0.28
		c0.3-0.09-0.18,0.28,0.19,0.12l0.08-0.09c0.12,0.18,0.42-0.06,0.59,0.06l-0.13,0.09c0,0.09,0.35-0.06,0.11,0.21l-0.09-0.09
		c-0.2,0.19-0.23,0.34-0.31,0.46c0.14,0.06,0.38-0.25,0.45-0.22c-0.18,0.19-0.1,0.09-0.33,0.22c0.17,0.06,0.39,0.15,0.71,0.02
		c-0.03,0.03-0.08,0.06-0.08,0.06c0.07,0.15,0.52-0.04,0.41,0.18l-0.05,0c-0.21,0.34,0.49,0.03,0.01,0.46
		c-0.05,0.12-0.07-0.12-0.25,0.16c-0.04,0.28,0.5-0.25,0.47,0c0-0.03-0.02,0-0.07,0.03c0.09,0.08,0.24,0.17,0.38,0.23
		c0.01-0.02,0.02-0.03,0.03-0.05l0,0.06c-0.01,0-0.02-0.01-0.03-0.01c-0.3,0.46,0.42,0.31,0.07,0.84c0.13-0.19,0.23-0.13,0.3-0.19
		c0,0-0.05,0.03-0.08,0.06c0.03,0.06,0.2-0.06,0.28-0.1c0.01-0.01,0.01-0.02,0.02-0.03c0.05,0,0.02,0.03,0.02,0.06
		c0.02-0.05-0.01-0.05-0.04-0.03c-0.11,0.16,0.28,0.02,0.21,0.12c0.11-0.09,0.11-0.02,0.15,0.03c-0.2,0-0.25,0.16-0.45,0.25
		c0.07,0.18,0.6-0.22,0.64-0.01l-0.13,0.25c0.32-0.23,0.31,0,0.42-0.09c-0.07,0.1-0.1,0.19-0.26,0.31c0.12,0,0.04,0.22,0.24,0.09
		l0.03-0.12c0.04,0.28,0.56,0.03,0.48,0.33l-0.46,0.37c-0.11,0.25,0.39-0.03,0.18,0.28c0.13-0.15,0.08-0.12,0.28-0.19
		c0-0.06-0.17-0.03-0.22-0.09l0.37-0.1l-0.29-0.09c0.25-0.06,0.2-0.03,0.35-0.22c0.25,0-0.11,0.31,0.16,0.28
		c-0.03,0.09-0.23,0.19-0.28,0.31c0.25-0.03-0.17,0.46,0.13,0.34c-0.03,0.06-0.05-0.03-0.15,0.06c0.1,0.03,0.12,0.09,0.27,0l0-0.1
		c0.03,0.06,0.22-0.09,0.19,0.1c0.15-0.03,0.4-0.19,0.35-0.25c0.05,0-0.03,0.15-0.18,0.25c0.12,0.15,0.54-0.33,0.44-0.01
		c0.03,0,0.04,0.01,0,0.01c0,0,0,0,0-0.01c-0.02,0-0.05,0.01-0.08,0.04c0,0.06,0.02,0.09,0.07,0.09c-0.14-0.09-0.33,0.34-0.37,0.13
		c-0.23,0.22,0.04,0.15-0.01,0.28c0.22-0.06,0.35-0.28,0.5-0.34c-0.08,0.06-0.05,0.09-0.06,0.15l0.15-0.19
		c0.02,0.03,0.05,0.06,0.12,0.06l-0.12,0c0.02,0.09-0.19,0.43,0.08,0.4c-0.1,0.03-0.3,0.09-0.33,0.25c0.22,0.03-0.05,0.09-0.13,0.28
		c0.14,0.09,0.34-0.25,0.38,0.03c0.02,0.02,0.11-0.09,0.14-0.15c0.01,0.2,0.2,0.16,0.17,0.39c0-0.09,0.03-0.19,0.18-0.19
		c-0.18,0.09-0.06,0.22-0.11,0.34l0.1-0.06c-0.07,0.12-0.14,0.11-0.2,0.11c0.03-0.02,0.05-0.06,0.03-0.08
		c-0.12,0-0.45,0.31-0.41,0.43c0.17,0.03,0.4-0.19,0.48-0.28c0.02,0.22,0.52-0.22,0.49,0.03c0.02,0.03-0.26,0.43-0.22,0.56
		c0.25-0.12,0.06-0.25,0.28-0.34c-0.39,0.59,0.59,0.06,0.45,0.52l-0.28,0.19c0.02,0.06,0.04,0.12,0.12,0.15l0.08-0.19
		c0.1,0,0.14,0.15-0.08,0.28c0.3-0.06,0.19,0.06,0.21,0.21c-0.07-0.12,0.03-0.03-0.16,0c-0.03,0.22,0.06,0.15,0.18,0.18
		c-0.1,0.06-0.21,0.22-0.18,0.25c0.22-0.06,0.29,0.09,0.46,0.12l-0.08,0.06c0.24,0.09,0.04,0.57,0.4,0.55
		c0.01-0.01,0.02-0.02,0.02-0.03l0,0.01c0.19-0.26,0.28-0.01,0.42-0.04c-0.05,0.06-0.15,0.16-0.13,0.19
		c0.23-0.19,0.17-0.03,0.3-0.09c-0.03,0.12-0.28,0.22-0.18,0.31c0.05,0.02,0.17-0.07,0.26-0.15c-0.1,0.12-0.13,0.26-0.12,0.33
		c-0.07,0.03-0.02-0.06-0.05-0.06c-0.13,0.09-0.05,0.09-0.21,0.22c0.02,0.06,0.23-0.16,0.2-0.03l-0.22,0.09
		c-0.03,0.06,0.07,0.03,0.1,0.03c-0.04,0-0.11,0.05-0.18,0.1c0.02,0.02,0.04,0.04,0.05,0.07c0.17-0.12,0.34-0.34,0.48-0.45
		c-0.03,0.25,0.29,0.15,0.38,0.24l-0.23,0.16c0.07,0.02,0.14,0.01,0.25-0.05l-0.02-0.02l0.13-0.05c-0.04,0.03-0.08,0.05-0.12,0.07
		l0.06,0.07c-0.11,0.02-0.19,0.06-0.36,0.2c0.13,0.03,0.16,0.19,0.46-0.03l-0.05,0.04c-0.01,0.19,0.11,0.46,0.01,0.53
		c0.13,0.03,0.15,0.16,0.25,0.17c0.1-0.07,0.32-0.24,0.33-0.22c-0.06,0.06-0.1,0.1-0.15,0.14c0.12,0.01-0.21,0.48,0.18,0.24
		c-0.12,0.23-0.07,0.07-0.3,0.21c-0.12,0.23,0.42-0.07,0.04,0.29c0.2-0.01,0.07-0.09,0.27-0.21c-0.36,0.33,0.09,0.23-0.05,0.49
		c0.19-0.09,0.06-0.12,0.28-0.18c-0.1,0.07-0.09,0.12-0.08,0.15l0.25-0.18l-0.35,0.39c0.02,0.03,0.05,0.06,0.07,0.08
		c0.17-0.11,0.22-0.24,0.41-0.17l-0.03,0.01c-0.2,0.25,0.29-0.02,0.21,0.26c0.01-0.08-0.13,0.08-0.21,0.12l0.16-0.01
		c-0.02,0-0.04,0.01-0.06,0.04c-0.12,0.21,0.14-0.02,0.04,0.18c-0.03,0-0.08,0.02-0.12,0.05c0.03,0.03,0.06,0.07,0.08,0.1l0.07-0.02
		l-0.06,0.04c0.88,1.06,1.77,2.12,2.66,3.17c-3.26,4.9-6.45,9.85-9.53,14.88c-3.57,5.88-7.07,11.81-10.12,17.99
		c4.47-5.23,8.98-10.37,13.49-15.52l10.58-12.16c3.65,4.26,7.34,8.5,11.11,12.67c4.62,5.09,9.28,10.14,14.17,15
		c-3.53-5.92-7.16-11.74-10.82-17.55c-3.26-5.16-6.58-10.27-9.92-15.37l1.07-1.25c-0.01-0.01-0.02-0.02-0.03-0.03l0.03-0.02l0,0.04
		l0.37-0.43c0,0,0-0.01,0-0.01c0,0,0.01,0,0.01,0.01l0.23-0.27c-0.05,0-0.1,0.01-0.06,0.06l-0.06-0.06c0-0.07,0.1-0.07,0.18-0.07
		l0.73-0.85c-0.07-0.02-0.12-0.03-0.11-0.12c0.07,0.07,0.11,0.08,0.13,0.09l0.08-0.09c-0.02-0.1,0.07-0.1,0.11-0.13l0.01-0.01
		c0.01-0.02,0.01-0.04-0.01-0.1c0.01,0.02,0.04,0.03,0.07,0.04l3.39-3.94c0.02-0.11,0.04-0.21,0.09-0.29
		c0.06,0.03,0.09,0.05,0.1,0.08l0.05-0.06l-0.06-0.07l0.09,0.02l0.68-0.79c-0.01-0.01,0-0.01-0.01-0.02c0,0,0.01,0.01,0.02,0.01
		l0.38-0.44l0.07-0.15l0.01,0.05l0.14-0.16c0-0.04,0.01-0.08,0.04-0.1l-0.18-0.07l0.02-0.2c0.24,0.18,0.22,0.01,0.34,0.11l0.31-0.37
		c0-0.11,0-0.22,0.05-0.3c-0.03,0.04,0.04,0.07,0.08,0.12c0.17-0.07,0.08-0.27-0.01-0.46c0.08,0.09,0.08,0.14,0.16,0.21
		c0.12-0.14-0.09-0.22-0.04-0.46c0.08,0.14,0.16,0.18,0.22,0.16c-0.11-0.08-0.15-0.18-0.16-0.23c0.14,0.17,0.22,0.24,0.29,0.27
		l0.24-0.28c-0.05-0.09-0.11-0.16-0.21-0.2l0.01,0.08c-0.16-0.13-0.05-0.13-0.02-0.19c-0.01-0.06,0-0.1,0.01-0.03
		c0,0.01,0,0.02-0.01,0.03c0.01,0.05,0.02,0.1,0.05,0.13c0-0.38,0.37-0.47,0.44-0.85c0.04,0.07,0.06,0.26,0.16,0.23
		c0.29-0.18,0.12-0.58,0.19-0.95c0.37,0.29-0.18,0.32,0.16,0.62c0.14-0.34,0.25-0.72,0.31-1.17c0.62,0.34,0.03-0.47,0.6-0.31
		c-0.19-0.13-0.18-0.28-0.1-0.38c0,0,0,0,0,0l0.02-0.01c0,0.01-0.01,0.01-0.01,0.02c0.12,0.16,0.21,0.05,0.29,0.17
		c-0.09-0.22,0.06-0.53,0.39-0.23c-0.32-0.3,0.17-0.18,0-0.45c-0.05,0-0.12-0.01-0.21-0.05l0.17-0.01c0.02,0.02,0.03,0.04,0.04,0.06
		c0.22-0.01,0.13-0.3,0.35-0.35c-0.25-0.13,0.02-0.22-0.03-0.35c0,0.03,0.01,0.08,0.04,0.1c0.22,0.11-0.03-0.29,0.15-0.28
		c0.11,0.03,0.19,0.17,0.25,0.13c-0.15-0.13-0.15-0.48,0.1-0.41c-0.03,0.04,0.04,0.1,0.08,0.17c0.05-0.59,0.7-0.72,0.71-1.35
		l0.2,0.28c0.52,0.04-0.29-0.5-0.09-0.66c0.55-0.41,1.36-0.64,1.62-1.27c-0.04-0.1-0.11-0.05-0.22-0.14
		c0.07-0.02,0.29,0.15,0.21-0.02l-0.15-0.1c0.56,0.08,0.3-0.87,1.02-0.55c-0.03-0.4,0.47-0.24,0.36-0.78
		c0.19,0.02,0.15,0.29,0.28,0.21l-0.01-0.42l0.01,0.03c-0.21-0.58,0.98-0.24,0.94-0.79l0.01,0.03c0.09,0.09,0.25,0.12,0.26,0.05
		c-0.05-0.07-0.12-0.07-0.22-0.11c0.06-0.4,0.1-0.46,0.25-0.7c0.07,0.21,0.19,0.02,0.4,0.17c-0.08-0.16-0.23-0.14-0.23-0.35
		c0.13-0.19,0.43-0.21,0.62-0.3c-0.12-0.2-0.01-0.24-0.22-0.43c0.15-0.21,0.16-0.39,0.36-0.63l0.08,0.06
		c-0.21-0.29,0.31-0.1,0.2-0.27c0.09,0.09,0.11,0.15,0.19,0.2l0.01-0.18c0.04,0.12,0.27,0.36,0.37,0.3
		c-0.11-0.25-0.15-0.08-0.27-0.26l0.27,0.18c0.03-0.09-0.23-0.35-0.38-0.33c0.21-0.24,0.29-0.58,0.51-0.76l0.14,0.16
		c0.04-0.17,0.18-0.33,0.38-0.28c-0.05-0.04-0.11-0.15-0.18-0.17c-0.1-0.33,0.28,0.21,0.17-0.15c0.03,0.09,0.02,0.17,0.11,0.25
		l0.04-0.46c0.12,0.1,0.54,0.15,0.54-0.06c-0.06-0.06-0.19-0.1-0.23-0.08l0.01-0.13l0.33,0.18l-0.15-0.32l-0.05-0.05l0.03-0.02
		l0.03,0.06l0.24,0.2c0.02-0.12-0.25-0.41-0.17-0.46c0.36-0.13,0.4-0.01,0.78,0c-0.43-0.4,0.26-0.27-0.03-0.59
		c0.54,0.04,0.63-0.48,0.99-0.71l0.02,0.06c0.32,0.04-0.21-0.44,0-0.51l0.04,0.09c0.4,0.01,0.45-0.5,0.41-0.84
		c0.04,0.09,0.2,0.2,0.23,0.13c-0.05-0.12-0.36-0.22-0.19-0.25c0.02,0.06,0.14,0.12,0.16,0.1l-0.14-0.29
		c0.37-0.13,0.79-0.3,0.88-0.67c0.12,0.02,0.17,0.12,0.24,0.2c0.13-0.25,0.12-0.62,0.24-0.85l0.28,0.2
		c0.08-0.09-0.35-0.39-0.02-0.32c0.06,0-0.05,0.09,0.04,0.23c0.36-0.02-0.16-0.32,0.02-0.48l0.25,0.29
		c0.29,0.01-0.02-0.29-0.15-0.48c-0.18-0.48,0.68,0.34,0.64-0.14c-0.11-0.16-0.23-0.17-0.34-0.33c0.23-0.12,0.04-0.32,0.27-0.44
		c0.52,0.27-0.08,0.09,0.42,0.33l-0.22,0.06c0.33,0.07-0.03,0.16,0.24,0.36c0.15-0.03,0.05-0.35,0.06-0.54
		c0.18,0.15-0.02,0.16,0.17,0.29l0.03-0.04l-0.01-0.05c0.01,0.01,0.02,0.02,0.03,0.04l0.07-0.08c-0.09-0.07-0.19-0.15-0.31-0.23
		c0.02,0.02,0.05,0.03,0.08,0.04c-0.18-0.36,0.2-0.38,0.06-0.67c0.04,0.07,0.07,0.07,0.12,0.1c0.07-0.06-0.13-0.36-0.12-0.52
		c0.19,0.07,0.41,0.39,0.46,0.17c-0.14-0.16-0.48-0.33-0.36-0.46c0,0,0.04,0.23,0.2,0.26c-0.01-0.22,0.09,0,0.37,0.04
		c-0.17-0.26,0.19-0.06-0.18-0.39c0.28,0.17,0.18,0.1,0.43,0.17c-0.1-0.05-0.12-0.12-0.14-0.19l-0.1,0.01
		c0.03-0.02,0.06-0.04,0.08-0.06c-0.02-0.09-0.04-0.18-0.16-0.27c0.11,0.07,0.17,0.15,0.22,0.23c0.07-0.05,0.13-0.1,0.18-0.15
		c-0.04-0.06-0.09-0.13-0.17-0.2c0.11,0,0.25,0.07,0.35,0.01c-0.01,0,0,0.01,0,0.03c0.01-0.01,0.02-0.02,0.03-0.03
		c0.01-0.15,0.12-0.24,0.14-0.37l-0.64-0.78C97.81,64.35,97.69,64.33,97.63,64.28z M45.45,75.83l-0.02-0.05l0.13,0.02L45.45,75.83z
		 M50.78,49.43l0.12-0.03l0.13,0.39L50.78,49.43z M50.26,82.45c-0.05,0,0-0.12-0.02-0.18C50.39,82.2,50.36,82.33,50.26,82.45z
		 M52.01,84.56l0.23-0.22C52.37,84.34,52.09,84.56,52.01,84.56z M56.34,89.14l-0.1-0.03l0.15,0.03H56.34z M56.68,90.34
		c0.13-0.09,0.13-0.19,0.2-0.16L56.68,90.34z M57.26,91.33c-0.01-0.05-0.06-0.07,0.03-0.13L57.26,91.33z M59.07,93.24
		c0.03-0.11,0.06-0.12,0.17-0.14C59.19,93.13,59.17,93.27,59.07,93.24z M59.55,93.74c-0.07-0.04-0.16,0.08-0.22,0.17l-0.04-0.18
		C59.39,93.93,59.66,93.38,59.55,93.74z M75.75,78.86c-2.99,4.17-5.91,8.39-8.81,12.63c-5.74-8.63-11.58-17.2-17.49-25.7l3.86-4.65
		c2.12-2.57,4.2-5.18,6.29-7.78c2.1-2.59,4.16-5.22,6.2-7.87c0.42-0.54,0.83-1.08,1.25-1.62c0.46,0.61,0.92,1.21,1.38,1.81
		c2.08,2.72,4.22,5.36,6.38,7.98c2.16,2.61,4.31,5.22,6.54,7.77c1.29,1.49,2.59,2.98,3.89,4.46C82.04,70.19,78.87,74.5,75.75,78.86z
		 M96.86,67.26c0.11-0.16,0.06,0.01,0.23,0.12C97.01,67.34,96.93,67.29,96.86,67.26z"/>
	<path d="M94,0H14.5C6.5,0,0,6.5,0,14.5V125c0,12.56,18.83,26,26.14,26h79.5c8.55,0,15.5-6.95,15.5-15.5V25
		C121.14,17.13,106.9,0,94,0z M14.5,5H94c3.4,0,8.38,1.8,10.06,4.5H26.14c-4.45,0-8.46,1.9-11.29,4.92
		c-1.66-2.15-4.2-5.08-6.86-6.81C9.69,5.99,11.98,5,14.5,5z M10.64,25v110.67C7.32,134.19,5,128.86,5,125V14.5
		c0-1.99,0.62-3.84,1.67-5.37c2.44,1.52,5.09,4.54,6.87,6.88C11.72,18.55,10.64,21.65,10.64,25z M117.04,134.48c0,6.6-5.4,12-12,12
		H26.75c-6.6,0-12-5.4-12-12V26.02c0-6.6,5.4-12,12-12h78.29c6.6,0,12,5.4,12,12V134.48z"/>
</g>
</svg>
