<!-- Generator: Adobe Illustrator 24.3.0, SVG Export Plug-In  -->
<svg version="1.1" xmlns="http://www.w3.org/2000/svg" xmlns:xlink="http://www.w3.org/1999/xlink" x="0px" y="0px"
	 width="135.07px" height="131.75px" viewBox="0 0 135.07 131.75"
	 style="overflow:visible;enable-background:new 0 0 135.07 131.75;" xml:space="preserve">
<style type="text/css">
	.st0{fill:none;stroke:#000000;stroke-width:5;stroke-linejoin:round;stroke-miterlimit:10;}
</style>
<defs>
</defs>
<g>
	<path class="st0" d="M60.19,80.67"/>
	<path class="st0" d="M43.46,80.29"/>
	<path class="st0" d="M11.18,54.22"/>
	<polyline points="119.29,70.39 128.96,78.59 135.01,77.22 124.1,69.22 	"/>
	<path d="M90.3,82.33c0-1.95-1.4-3.57-3.25-3.92c-0.26-1.73-1.75-3.05-3.51-3.08c-0.49-1.48-1.85-2.49-3.44-2.49
		c-1.93,0-3.5,1.52-3.62,3.42c-0.23-0.05-0.47-0.07-0.71-0.07c-2.01,0-3.64,1.63-3.64,3.64h1.24c0-1.32,1.07-2.4,2.4-2.4
		c0.31,0,0.61,0.06,0.89,0.18c0.47,1.43,1.79,2.47,3.36,2.5c0.36,1.08,1.2,1.94,2.3,2.3c0.02,0.88,0.34,1.73,0.88,2.41
		c-0.55,0.68-0.89,1.54-0.89,2.48c0,0.23,0.02,0.46,0.06,0.68c-1.25,0.42-2.26,1.39-2.75,2.64c-0.14-0.01-0.27-0.04-0.41-0.04
		c-0.66,0-1.29,0.14-1.87,0.37c-0.82-1.61-2.49-2.67-4.34-2.67c-0.08,0-0.16,0.02-0.24,0.02c-0.36-1.51-1.39-2.71-2.75-3.31
		c0.02-0.18,0.06-0.35,0.06-0.52c0-2.1-1.44-3.85-3.38-4.36c-0.06-2.25-1.89-4.07-4.16-4.07c-0.41,0-0.8,0.08-1.18,0.19
		c-0.66-0.57-1.49-0.9-2.37-0.9c-2.01,0-3.64,1.63-3.64,3.64s1.63,3.64,3.64,3.64l0.09,0l-0.01-0.09c0.47,0.71,1.16,1.27,1.99,1.59
		c-0.01,0.12-0.04,0.24-0.04,0.37c0,1.63,0.87,3.1,2.25,3.91c-0.08,0.34-0.12,0.7-0.12,1.06c0,2.69,2.19,4.88,4.88,4.88
		c0.08,0,0.16-0.01,0.24-0.01c0.52,2.14,2.43,3.74,4.73,3.74c0.56,0,1.11-0.1,1.63-0.28c0.8,1.73,2.55,2.95,4.58,2.95
		c2.4,0,4.41-1.69,4.92-3.93c2.35-0.16,4.22-2.1,4.22-4.49c0-0.5-0.1-0.96-0.25-1.41c1.33-0.67,2.2-2.04,2.2-3.56
		c0-0.94-0.34-1.8-0.89-2.48C89.97,84.11,90.3,83.25,90.3,82.33z M89.06,82.33c0,0.6-0.2,1.17-0.55,1.64
		c-0.63-0.42-1.38-0.66-2.2-0.66c-0.81,0-1.57,0.25-2.2,0.67c-0.35-0.47-0.55-1.05-0.55-1.64c0-1.52,1.23-2.75,2.75-2.75
		C87.82,79.59,89.06,80.82,89.06,82.33z M79.84,78.85c-1.2-0.13-2.14-1.14-2.14-2.37c0-1.32,1.07-2.4,2.4-2.4
		c0.98,0,1.83,0.58,2.2,1.45C80.9,76.01,79.89,77.31,79.84,78.85z M81.07,78.96c0-1.32,1.07-2.4,2.4-2.4c1.11,0,2.06,0.78,2.32,1.83
		c-1.55,0.2-2.82,1.3-3.27,2.76C81.66,80.78,81.07,79.94,81.07,78.96z M58.37,80.21c0,0.38,0.06,0.75,0.16,1.11
		c-1.1-0.21-1.94-1.18-1.94-2.35c0-1.32,1.07-2.4,2.4-2.4c0.39,0,0.76,0.1,1.1,0.28C59.05,77.61,58.37,78.82,58.37,80.21z
		 M61.33,82.87c-1.03-0.47-1.72-1.5-1.72-2.67c0-1.61,1.31-2.93,2.93-2.93c1.53,0,2.77,1.18,2.9,2.67
		C63.55,80,61.96,81.2,61.33,82.87z M62.27,84.46c0-1.81,1.47-3.28,3.28-3.28c1.81,0,3.28,1.47,3.28,3.28
		c0,0.05-0.02,0.11-0.02,0.16c-0.26-0.04-0.51-0.07-0.78-0.07c-1.88,0-3.49,1.08-4.31,2.63C62.83,86.58,62.27,85.57,62.27,84.46z
		 M64.4,89.43c0-2.01,1.63-3.64,3.64-3.64c1.67,0,3.1,1.14,3.51,2.73c-1.95,0.62-3.37,2.4-3.41,4.54c-0.03,0-0.07,0.01-0.1,0.01
		C66.03,93.07,64.4,91.44,64.4,89.43z M73,96.79c-2.01,0-3.64-1.63-3.64-3.64S71,89.52,73,89.52c1.4,0,2.66,0.81,3.26,2.03
		c-1.27,0.92-2.11,2.4-2.11,4.09c0,0.31,0.04,0.61,0.09,0.91C73.85,96.69,73.44,96.79,73,96.79z M79.21,99.45
		c-2.1,0-3.81-1.71-3.81-3.81c0-2.1,1.71-3.81,3.81-3.81c2.1,0,3.81,1.71,3.81,3.81C83.02,97.74,81.31,99.45,79.21,99.45z
		 M84.25,95.51c-0.06-2.15-1.46-3.96-3.4-4.63c0.53-1.13,1.69-1.89,2.97-1.89c1.81,0,3.28,1.47,3.28,3.28
		C87.11,93.93,85.86,95.29,84.25,95.51z M87.55,89.72c-0.82-1.19-2.18-1.97-3.73-1.97c-0.08,0-0.15,0.01-0.23,0.02
		c-0.03-0.15-0.04-0.31-0.04-0.46c0-1.52,1.23-2.75,2.75-2.75c1.52,0,2.75,1.23,2.75,2.75C89.06,88.33,88.45,89.25,87.55,89.72z"/>
	<path d="M88.35,90.21c-0.07-0.03-0.14-0.05-0.2-0.08"/>
	<path d="M101.01,75.05l1.04-0.06c-0.31-10.72-4.86-15.08-10.1-14.88c-3.31,0.12-6.96,1.24-8.82,3.41c-1.9,2.21-3.3,5.04-3.12,8.04
		l1.24-0.07c-0.08-2.17,0.93-5.29,2.75-7.09c0.62-0.61,1.3-1.13,2-1.56c-2,2.03-3.19,4.99-3.02,13.19L101.01,75.05z M92.09,62.59
		c3.71-0.19,6.94,2.91,7.43,11.35l-14.06,0.61C85.53,66.18,88.39,62.79,92.09,62.59z"/>
	<path d="M124.4,21.8C116.59,8.87,100.08-1.68,75.33,0.22C45.34,2.54,21.86,13.28,19.56,14.61c-5.79,2.16-9.34,13.49-12.55,39.77
		c-0.12,0.95,0.33,1.89,1.14,2.4L42.46,76.9l40.76-2.32l-3.12-4.91l-34.95,1.81c-0.15-1.54-0.56-4.84-0.58-5.03
		C43.1,54.98,39.5,35.9,32.15,24.13c-1.03-1.84-2.11-3.53-3.22-5.03c-0.76-1.02-2.27-2.64-3.04-3.34
		c8.37-4.12,27.72-9.83,49.71-11.53c23.04-1.78,37.54,7.79,44.4,19.13c4.73,7.84,8.26,21.15,9.94,43.73l-28.81,1.49v4.98l0.51-0.03
		l31.23-1.78c1.32-0.15,2.29-1.31,2.2-2.64C133.9,51.96,131.1,32.89,124.4,21.8z M36.08,48.6c1.94,8.05,3.19,15.92,3.87,22.08
		L10.89,54.67c3.3-26.15,6.79-33.7,8.63-35.1C26.78,14.87,33.88,39.77,36.08,48.6z"/>
	<path d="M135.01,77.22l0.04-0.03l-33.17,1.03l-0.53,3.56l27.47-0.91c-0.3,16.45-1.62,29.84-2.05,31.58
		c-0.72,2.89-2.63,5.07-5.82,6.67c-1.93,0.93-18.25,4.56-40.24,5.85c-16.42,0.96-32.53,0.78-38.94,0.5l3.73-41.6l15.89-0.69
		c0,0-3.28-1.37-2.17-3.89l-15.27,0.66c-0.2-0.37-32.1-25.7-32.1-25.7c-0.86-0.66-2.01-0.83-3.03-0.43c-1.01,0.4-1.75,1.3-1.93,2.37
		L0.04,96.54c-0.18,1.06,0.2,2.14,1.02,2.85l35.39,31.01c0.58,0.51,1.31,0.77,2.05,0.77c0.05,0,0.09-0.01,0.14-0.01
		c0.1,0.01,0.19,0.04,0.28,0.05c0.13,0.01,8.89,0.54,21.08,0.54c6.33,0,13.59-0.14,21.05-0.58c21.74-1.27,39.58-4.96,42.65-6.49
		c6.04-3.02,8.27-7.49,9.07-10.72c0.7-2.79,2.13-19.27,2.29-36.74L135.01,77.22z M4.81,96.79l5.78-36.94l30.62,24.01l-4.3,40.17
		L4.81,96.79z M69.08,83.19c0,0-3.85-3.84-2.84-3.87c1.01-0.03,14.09-0.39,14.09-0.39s0.24,2.12,2.57,3.61L69.08,83.19z"/>
	<path d="M102.12,76.9l-15.82,0.56l1.01,1.77l12.31-0.71c-0.14,4.31-1.2,9.48-6.68,10.02c-1.64,0.16-1.95-0.82-3.2-1.83l-1.41,3.32
		c1.6,0.63,5.57,0.68,5.97,0.66C99.55,90.45,102.39,82.66,102.12,76.9z"/>
	<path d="M94.55,67.75c0-1.04-0.84-1.88-1.88-1.88c-1.04,0-1.88,0.84-1.88,1.88c0,0.74,0.43,1.37,1.05,1.68v2.62h1.66v-2.62
		C94.12,69.13,94.55,68.49,94.55,67.75z"/>
	<g>
		<path d="M77.39,72.08c-0.02-0.31-2.29-31.61-4.57-44.79C70.54,14.18,62.37,4.84,62.29,4.75l0.46-0.41
			c0.08,0.09,8.37,9.57,10.67,22.85c2.29,13.21,4.56,44.54,4.58,44.85L77.39,72.08z"/>
	</g>
	<g>
		<path d="M103.38,71.01c-0.01-0.12-0.94-11.85-1.55-16.75c-0.13-1-0.26-2.34-0.42-3.95c-0.64-6.41-1.71-17.15-4.47-29.12
			c-3.12-13.54-6.32-16.38-6.35-16.4l0.4-0.48c0.14,0.11,3.37,2.91,6.56,16.74c2.77,12.01,3.84,22.77,4.49,29.2
			c0.16,1.61,0.29,2.93,0.42,3.93c0.61,4.92,1.54,16.66,1.55,16.78L103.38,71.01z"/>
	</g>
	<g>
		<path d="M75.24,71.65c-0.02-0.38-2.41-38.1-4.36-46.08C68.49,15.82,60.61,4.74,60.53,4.63l0.25-0.18c0.08,0.11,8,11.24,10.4,21.05
			c1.96,8.01,4.34,45.75,4.37,46.13L75.24,71.65z"/>
	</g>
	<path d="M64.03,61.26L64.03,61.26c-0.35-0.19-1.01-0.34-1.44-0.34c-1.43,0-2.59,1.16-2.59,2.59c0,1.18,0.97,2.08,1.86,2.42l0-0.01
		c0.38,0.21,0.81,0.35,1.27,0.35c1.43,0,2.59-1.16,2.59-2.59C65.73,62.57,65.02,61.63,64.03,61.26z M62.19,61.27
		c-0.96,0.38-1.65,1.31-1.65,2.41c0,0.41,0.11,0.8,0.28,1.15c-0.31-0.36-0.52-0.81-0.52-1.32C60.31,62.39,61.12,61.46,62.19,61.27z
		 M63.13,65.96c-1.26,0-2.28-1.02-2.28-2.28c0-1.26,1.02-2.28,2.28-2.28c1.26,0,2.28,1.02,2.28,2.28
		C65.41,64.94,64.39,65.96,63.13,65.96z"/>
	<path d="M62.42,45.56L62.42,45.56c-0.35-0.19-1.01-0.34-1.44-0.34c-1.43,0-2.59,1.16-2.59,2.59c0,1.18,0.97,2.08,1.86,2.42l0-0.01
		c0.38,0.21,0.81,0.35,1.27,0.35c1.43,0,2.59-1.16,2.59-2.59C64.11,46.87,63.41,45.92,62.42,45.56z M60.58,45.57
		c-0.96,0.38-1.65,1.31-1.65,2.41c0,0.41,0.11,0.8,0.28,1.15c-0.31-0.36-0.52-0.81-0.52-1.32C58.7,46.69,59.51,45.76,60.58,45.57z
		 M61.52,50.26c-1.26,0-2.28-1.02-2.28-2.28c0-1.26,1.02-2.28,2.28-2.28c1.26,0,2.28,1.02,2.28,2.28
		C63.8,49.23,62.78,50.26,61.52,50.26z"/>
	<path d="M59.04,29.31L59.04,29.31c-0.35-0.19-1.01-0.34-1.44-0.34c-1.43,0-2.59,1.16-2.59,2.59c0,1.18,0.97,2.08,1.86,2.42l0-0.01
		c0.38,0.21,0.81,0.35,1.27,0.35c1.43,0,2.59-1.16,2.59-2.59C60.74,30.62,60.03,29.67,59.04,29.31z M57.2,29.32
		c-0.96,0.38-1.65,1.31-1.65,2.41c0,0.41,0.11,0.8,0.28,1.15c-0.31-0.36-0.52-0.81-0.52-1.32C55.32,30.44,56.13,29.51,57.2,29.32z
		 M58.14,34.01c-1.26,0-2.28-1.02-2.28-2.28c0-1.26,1.02-2.28,2.28-2.28c1.26,0,2.28,1.02,2.28,2.28
		C60.43,32.99,59.4,34.01,58.14,34.01z"/>
	<path d="M52.9,13.06L52.9,13.06c-0.35-0.19-1.01-0.34-1.44-0.34c-1.43,0-2.59,1.16-2.59,2.59c0,1.18,0.97,2.08,1.86,2.42l0-0.01
		c0.38,0.21,0.81,0.35,1.27,0.35c1.43,0,2.59-1.16,2.59-2.59C54.59,14.37,53.89,13.42,52.9,13.06z M51.06,13.07
		c-0.96,0.38-1.65,1.31-1.65,2.41c0,0.41,0.11,0.8,0.28,1.15c-0.31-0.36-0.52-0.81-0.52-1.32C49.18,14.19,49.99,13.26,51.06,13.07z
		 M52,17.76c-1.26,0-2.28-1.02-2.28-2.28c0-1.26,1.02-2.28,2.28-2.28c1.26,0,2.28,1.02,2.28,2.28C54.28,16.74,53.26,17.76,52,17.76z
		"/>
	<path d="M118.21,58.72L118.21,58.72c-0.33-0.18-0.97-0.32-1.39-0.32c-1.38,0-2.5,1.12-2.5,2.5c0,1.13,0.93,2,1.8,2.33l0-0.01
		c0.36,0.21,0.78,0.33,1.22,0.33c1.38,0,2.5-1.12,2.5-2.5C119.85,59.99,119.16,59.08,118.21,58.72z M116.44,58.74
		c-0.93,0.36-1.59,1.26-1.59,2.32c0,0.4,0.1,0.77,0.27,1.11c-0.3-0.35-0.5-0.78-0.5-1.27C114.63,59.81,115.41,58.92,116.44,58.74z
		 M117.35,63.25c-1.21,0-2.2-0.99-2.2-2.2c0-1.21,0.99-2.2,2.2-2.2c1.21,0,2.2,0.99,2.2,2.2C119.55,62.27,118.56,63.25,117.35,63.25
		z"/>
	<path d="M116.66,43.6L116.66,43.6c-0.33-0.18-0.97-0.32-1.39-0.32c-1.38,0-2.5,1.12-2.5,2.5c0,1.13,0.93,2,1.8,2.33l0-0.01
		c0.36,0.21,0.78,0.33,1.22,0.33c1.38,0,2.5-1.12,2.5-2.5C118.29,44.86,117.61,43.95,116.66,43.6z M114.89,43.61
		c-0.93,0.36-1.59,1.26-1.59,2.32c0,0.4,0.1,0.77,0.27,1.11c-0.3-0.35-0.5-0.78-0.5-1.27C113.07,44.69,113.86,43.79,114.89,43.61z
		 M115.8,48.13c-1.21,0-2.2-0.99-2.2-2.2c0-1.21,0.99-2.2,2.2-2.2c1.21,0,2.2,0.99,2.2,2.2C117.99,47.14,117.01,48.13,115.8,48.13z"
		/>
	<path d="M113.41,27.95L113.41,27.95c-0.33-0.18-0.97-0.32-1.39-0.32c-1.38,0-2.5,1.12-2.5,2.5c0,1.13,0.93,2,1.8,2.33l0-0.01
		c0.36,0.21,0.78,0.33,1.22,0.33c1.38,0,2.5-1.12,2.5-2.5C115.04,29.21,114.36,28.3,113.41,27.95z M111.64,27.96
		c-0.93,0.36-1.59,1.26-1.59,2.32c0,0.4,0.1,0.77,0.27,1.11c-0.3-0.35-0.5-0.78-0.5-1.27C109.82,29.04,110.61,28.14,111.64,27.96z
		 M112.54,32.48c-1.21,0-2.2-0.99-2.2-2.2c0-1.21,0.99-2.2,2.2-2.2c1.21,0,2.2,0.99,2.2,2.2C114.74,31.49,113.75,32.48,112.54,32.48
		z"/>
	<path d="M107.49,13.54L107.49,13.54c-0.33-0.18-0.97-0.32-1.39-0.32c-1.38,0-2.5,1.12-2.5,2.5c0,1.13,0.93,2,1.8,2.33l0-0.01
		c0.36,0.21,0.78,0.33,1.22,0.33c1.38,0,2.5-1.12,2.5-2.5C109.12,14.8,108.44,13.89,107.49,13.54z M105.72,13.55
		c-0.93,0.36-1.59,1.26-1.59,2.32c0,0.4,0.1,0.77,0.27,1.11c-0.3-0.35-0.5-0.78-0.5-1.27C103.9,14.63,104.69,13.73,105.72,13.55z
		 M106.63,18.07c-1.21,0-2.2-0.99-2.2-2.2c0-1.21,0.99-2.2,2.2-2.2c1.21,0,2.2,0.99,2.2,2.2C108.82,17.08,107.84,18.07,106.63,18.07
		z"/>
</g>
</svg>
