<!-- Generator: Adobe Illustrator 24.3.0, SVG Export Plug-In  -->
<svg version="1.1" xmlns="http://www.w3.org/2000/svg" xmlns:xlink="http://www.w3.org/1999/xlink" x="0px" y="0px"
	 width="174.19px" height="151.18px" viewBox="0 0 174.19 151.18"
	 style="overflow:visible;enable-background:new 0 0 174.19 151.18;" xml:space="preserve">
<defs>
</defs>
<g>
	<path d="M173.21,0.27c-0.6-0.35-1.35-0.36-1.96-0.02l-41.59,23.26L88.06,0.25c-0.6-0.34-1.33-0.34-1.93,0L44.54,23.52L2.94,0.25
		C2.33-0.09,1.58-0.08,0.98,0.27C0.37,0.63,0,1.28,0,1.98V125.4c0,0.72,0.39,1.38,1.01,1.72l42.56,23.8c0.6,0.34,1.33,0.34,1.93,0
		l41.59-23.26l41.59,23.26c0.3,0.17,0.63,0.25,0.97,0.25c0.33,0,0.66-0.08,0.97-0.25l42.56-23.8c0.62-0.35,1.01-1.01,1.01-1.72V1.98
		C174.19,1.28,173.82,0.63,173.21,0.27z M170.24,124.24l-40.58,22.7l-41.59-23.26c-0.3-0.17-0.63-0.25-0.96-0.25
		s-0.67,0.08-0.97,0.25l-41.59,23.26l-40.58-22.7V5.35l39.62,22.16c0.6,0.34,1.33,0.34,1.93,0L87.1,4.24l41.59,23.26
		c0.6,0.34,1.33,0.34,1.93,0l39.62-22.16V124.24z"/>
	<path d="M57.69,92.44l-0.17,0.42l4.51,1.8l0.17-0.42c1.01-2.54,1.96-4.93,2.98-7.16l-4.42-2.03C59.7,87.39,58.72,89.84,57.69,92.44
		z"/>
	<path d="M72.02,72.13c-2.55,1-4.77,2.72-6.77,5.24l3.8,3.02c1.45-1.83,3.01-3.05,4.74-3.74c0.18-0.07,0.34-0.12,0.49-0.15
		l-0.98-4.76C72.89,71.83,72.46,71.96,72.02,72.13z"/>
	<path d="M50.57,107.43l4.06,2.66c1.42-2.17,2.78-4.67,4.14-7.64l-4.42-2.03C53.09,103.17,51.86,105.46,50.57,107.43z"/>
	<path d="M25.28,77.31l-4.71-1.19c-0.74,2.93-1.25,5.81-1.51,8.57l4.84,0.45C24.13,82.63,24.6,79.99,25.28,77.31z"/>
	<path d="M31.08,62.42C31.08,62.42,31.08,62.42,31.08,62.42l-2.09-1.2L26.87,60c-0.07,0.13-1.81,3.17-3.65,7.9l4.53,1.76
		C29.43,65.33,31.04,62.5,31.08,62.42z"/>
	<path d="M29.35,107.46l-4.16,2.51c1.76,2.92,3.64,5.3,5.58,7.06l3.27-3.59C32.45,112,30.88,109.98,29.35,107.46z"/>
	<path d="M23.94,92.94l-4.83,0.56c0.36,3.08,1.1,6.01,2.2,8.69l4.49-1.84C24.87,98.07,24.24,95.58,23.94,92.94z"/>
	<path d="M44.99,113.82c-1.79,1.47-3.54,2.24-5.2,2.27l0.09,4.86c2.79-0.05,5.55-1.19,8.2-3.38c0.26-0.21,0.51-0.43,0.76-0.65
		l-3.22-3.63C45.42,113.46,45.21,113.64,44.99,113.82z"/>
	<path d="M120.42,75.92c2,1.59,4.09,3.37,6.2,5.31l3.29-3.58c-2.2-2.02-4.38-3.88-6.47-5.54L120.42,75.92z"/>
	<path d="M80.88,79.2l-4.7,1.24c0.15,0.58,0.3,1.18,0.46,1.81c0.49,1.98,1.05,4.22,1.87,6.44l4.56-1.68
		c-0.73-1.97-1.23-3.98-1.71-5.93C81.19,80.43,81.04,79.8,80.88,79.2z"/>
	<path d="M139.35,92.14l-0.85-2.28l0,0l1.83-1.6c-0.29-0.34-1.89-2.15-4.34-4.68l-3.49,3.38c2.36,2.44,3.88,4.16,4.16,4.48
		L139.35,92.14z"/>
	<path d="M103.25,93.26l0,0.19c0,1.14-0.24,2.31-3.11,2.88l0.95,4.76c6.1-1.22,7.01-5.32,7.01-7.65c0-0.12,0-0.24-0.01-0.36
		L103.25,93.26z"/>
	<path d="M106.88,67.71c2.13,0.78,4.48,1.96,6.98,3.53l2.57-4.12c-2.79-1.74-5.44-3.08-7.88-3.97L106.88,67.71z"/>
	<path d="M83.38,96.64c2.27,2.22,5.13,3.69,8.49,4.37l0.97-4.76c-2.47-0.5-4.45-1.51-6.07-3.09L83.38,96.64z"/>
	<path d="M98.03,68.17c0-0.62,0-1.15,1.68-1.44l0.21-0.03l-0.73-4.8c-0.11,0.02-0.22,0.03-0.32,0.05c-3.62,0.64-5.69,2.91-5.69,6.22
		c0,0.84,0.13,1.74,0.39,2.75l4.7-1.22C98.11,69.1,98.03,68.59,98.03,68.17z"/>
	<path d="M105.33,84.23c-0.86-1.78-1.85-3.6-2.81-5.37c-0.38-0.7-0.76-1.4-1.12-2.09l-4.29,2.28c0.37,0.7,0.75,1.41,1.14,2.12
		c0.93,1.72,1.89,3.49,2.71,5.18L105.33,84.23z"/>
	<path d="M137.52,99.3c-0.41,0.79-0.47,1.56-0.18,2.28c0.29,0.73,0.81,1.29,1.58,1.68c0.54,0.28,1.04,0.38,1.5,0.31
		s0.77-0.26,0.96-0.59c0.19-0.33,0.34-0.6,0.45-0.82c0.28-0.54,1.11-1.38,2.49-2.51c0.92-0.77,1.88-1.52,2.9-2.25
		c0.27,3.23,0.45,5.04,0.52,5.44c0.44,2.43,1.2,3.93,2.28,4.48c0.63,0.33,1.39,0.32,2.26-0.01c0.87-0.34,1.47-0.8,1.78-1.41
		c0.23-0.45,0.22-0.91-0.01-1.39c-0.61-1.32-1.04-2.52-1.28-3.61c-0.18-0.82-0.46-2.86-0.83-6.14c0.86-0.36,1.99-0.95,3.37-1.76
		c2.72-1.62,4.59-2.61,5.61-2.96c0.24-0.08,0.64-0.19,1.2-0.35c0.42-0.19,0.72-0.46,0.9-0.81c0.29-0.57,0.28-1.15-0.04-1.74
		c-0.32-0.59-0.79-1.03-1.39-1.34c-0.8-0.41-2-0.35-3.61,0.17c-1.61,0.52-3.75,1.58-6.42,3.18c0.1-1.84,0.2-3.69,0.32-5.56
		c0.07-2.25-0.36-3.61-1.28-4.09c-0.64-0.33-1.31-0.46-2.02-0.4c-0.71,0.06-1.22,0.39-1.53,0.99c-0.5,0.99-0.69,2.92-0.56,5.79
		c0.08,1.49,0.18,3.45,0.3,5.87c-2.35,1.53-4.04,2.67-5.07,3.42C139.47,96.85,138.07,98.22,137.52,99.3z"/>
	<path d="M32.75,40.93c-0.88,0-1.7,0.18-2.45,0.54c-0.42-0.34-0.96-0.51-1.62-0.51c-1.83,0-3.43,1.35-4.8,4.06
		c-1.08,2.15-1.62,4.01-1.62,5.59c0,1.64,0.55,2.97,1.67,3.99c1.24,1.13,3.07,1.69,5.49,1.69c3.17,0,5.62-1.14,7.35-3.42
		c1.37-1.79,2.06-3.83,2.06-6.13c0-1.49-0.44-2.77-1.32-3.83C36.43,41.59,34.84,40.93,32.75,40.93z M33,50.64
		c-0.98,1.92-2.27,2.87-3.87,2.87c-0.72,0-1.28-0.19-1.69-0.57c-0.41-0.38-0.61-1.02-0.61-1.92c0-0.94,0.14-1.83,0.41-2.68
		c0.28-0.85,0.68-1.77,1.2-2.75c0.39,0.11,0.86-0.17,1.4-0.83c0.54-0.66,1.25-0.99,2.13-0.99c0.85,0,1.45,0.33,1.81,0.99
		c0.23,0.43,0.34,0.98,0.34,1.66C34.12,47.74,33.75,49.15,33,50.64z"/>
</g>
</svg>
