<!-- Generator: Adobe Illustrator 24.3.0, SVG Export Plug-In  -->
<svg version="1.1" xmlns="http://www.w3.org/2000/svg" xmlns:xlink="http://www.w3.org/1999/xlink" x="0px" y="0px"
	 width="119.46px" height="168.88px" viewBox="0 0 119.46 168.88"
	 style="overflow:visible;enable-background:new 0 0 119.46 168.88;" xml:space="preserve">
<defs>
</defs>
<g>
	<path d="M119.46,83.77c0-6.95-2.02-14.87-4.58-20.98c0.24-0.33,0.37-0.73,0.37-1.14v-7.48c0-0.08,0-0.15-0.01-0.23
		c-0.23-1.99-0.36-4.07-0.49-6.07c-0.3-4.85-0.62-9.86-2.41-14.69c-0.01-0.03-0.02-0.05-0.03-0.08
		c-5.44-12.9-18.53-22.83-34.49-26.34c0.73-2.94-0.81-4.71-1.41-5.26c-1.92-1.78-5.11-2-7.24-0.5c-0.65,0.46-2.41,1.99-2.05,4.95
		c-24.8,4.56-40.86,14.19-39.39,44.16c-1.78,0.79-4.72,2.09-6.68,2.89c-8.03,3.27-17.13,6.99-20.62,11.57L0,65.13v3.21l0.62,0.62
		c5.85,5.86,12.16,3.15,17.72,0.77c0.47-0.2,0.94-0.4,1.4-0.6c-1.4,4.64-2.16,9.55-2.16,14.64c0,15.69,7.28,30.5,19.59,40.13
		c-2.67,8.65-4.07,18.35-4.07,28.25c0,4.57,0.31,9.17,0.91,13.67c0.23,1.75,1.73,3.06,3.5,3.06h62.02c1.77,0,3.26-1.31,3.49-3.06
		c0.6-4.5,0.91-9.1,0.91-13.67c0-9.89-1.4-19.6-4.07-28.25C112.19,114.27,119.46,99.46,119.46,83.77z M40.11,21.5
		c5.94-5.87,15.13-9.6,29.77-12.08c0.59-0.1,1.1-0.46,1.38-0.98c0.29-0.52,0.32-1.14,0.09-1.69c-0.3-0.73-0.7-2.03,0.05-2.56
		c0.64-0.44,1.78-0.36,2.36,0.17c0.75,0.7,0.11,2.09-0.34,2.86c-0.32,0.55-0.36,1.23-0.09,1.81c0.27,0.58,0.8,0.99,1.43,1.1
		c15.72,2.78,28.72,12.14,33.93,24.45c1.58,4.28,1.86,8.78,2.16,13.54c0.13,2.02,0.26,4.1,0.5,6.17v6.39
		c-1.68,1.07-3.82,1.34-6.07,1.61c-0.83,0.1-1.68,0.21-2.53,0.35c-4.08,0.36-8.07-1.12-12.29-2.68c-2.63-0.97-5.34-1.98-8.14-2.54
		c-16.81-4.84-34.23-6.5-50.71-7.7C31,36.8,33.72,27.81,40.11,21.5z M16.68,65.84c-5.39,2.31-8.98,3.62-12.42,0.73
		c3.21-3.47,11.59-6.89,18.39-9.66c2.84-1.16,5.54-2.26,7.62-3.27c0.5-0.01,1-0.01,1.5-0.01c8.62,0.63,17.49,1.39,26.37,2.68
		c10.67,2.04,21.23,5.04,31.85,8.32c-19.92,11.44-29.78,8.28-49.93,1.84c-2.45-0.78-4.98-1.59-7.71-2.43
		C26.77,61.51,21.41,63.81,16.68,65.84z M93.71,119.7c-1.29,0.9-1.82,2.55-1.31,4.04c2.94,8.52,4.49,18.34,4.49,28.42
		c0,3.23-0.16,6.47-0.49,9.68H40.65c-0.32-3.2-0.49-6.45-0.49-9.68c0-10.07,1.55-19.9,4.49-28.42c0.51-1.49-0.02-3.13-1.31-4.03
		c-11.71-8.22-18.7-21.66-18.7-35.93c0-5.86,1.17-11.45,3.27-16.57c0.94,0.08,1.87,0.31,2.79,0.74L30.83,68l0.14,0.04
		c2.76,0.85,5.32,1.67,7.8,2.46c10.83,3.46,18.74,5.99,27.12,5.99c0.23,0,0.45,0,0.68-0.01c9.06-0.15,17.9-3.32,29.53-10.6
		c1.76,0.42,3.55,0.7,5.39,0.7c0.56,0,1.12-0.02,1.69-0.08c0.05,0,0.11-0.01,0.16-0.02c0.77-0.14,1.57-0.23,2.41-0.34
		c0.89-0.11,1.82-0.23,2.76-0.4c2.49,5.5,3.9,11.6,3.9,18.02C112.41,98.04,105.42,111.47,93.71,119.7z"/>
	<g>
		<path d="M77.14,28.35c-0.28,1.24-0.71,2.32-1.29,3.23s-1.28,1.66-2.09,2.24c-0.81,0.58-1.72,0.99-2.72,1.22
			c-1,0.23-2.05,0.29-3.16,0.17l-1.18,4.38c-0.06,0.28-0.32,0.44-0.77,0.49c-0.45,0.05-1.08-0.02-1.88-0.2
			c-0.5-0.11-0.91-0.21-1.25-0.31c-0.34-0.09-0.59-0.19-0.76-0.29c-0.17-0.1-0.29-0.22-0.36-0.35c-0.07-0.13-0.1-0.29-0.09-0.48
			l1.01-5.39c0.07-0.47,0.18-0.86,0.31-1.15c0.13-0.3,0.3-0.52,0.52-0.67c0.21-0.15,0.44-0.23,0.69-0.24
			c0.25-0.01,0.54,0.02,0.88,0.1l0.33,0.07c0.81,0.18,1.53,0.2,2.16,0.07s1.19-0.37,1.67-0.7c0.48-0.33,0.87-0.76,1.17-1.3
			c0.3-0.54,0.52-1.13,0.67-1.78c0.17-0.74,0.22-1.44,0.15-2.09c-0.07-0.65-0.26-1.24-0.58-1.77c-0.32-0.53-0.77-0.98-1.36-1.35
			c-0.58-0.38-1.29-0.66-2.13-0.84c-0.78-0.17-1.47-0.25-2.1-0.23c-0.62,0.02-1.16,0.07-1.62,0.15c-0.46,0.08-0.84,0.16-1.16,0.25
			s-0.55,0.12-0.7,0.09c-0.12-0.03-0.23-0.08-0.3-0.17s-0.12-0.22-0.13-0.42s0.01-0.46,0.03-0.8c0.03-0.34,0.1-0.77,0.22-1.29
			c0.12-0.53,0.23-0.91,0.33-1.15c0.1-0.24,0.25-0.42,0.44-0.54c0.19-0.12,0.52-0.23,0.98-0.34c0.46-0.11,1.01-0.18,1.64-0.22
			c0.63-0.04,1.32-0.04,2.08,0c0.76,0.04,1.54,0.15,2.34,0.33c1.77,0.4,3.23,0.99,4.39,1.77c1.16,0.78,2.05,1.68,2.67,2.7
			c0.62,1.02,1,2.11,1.15,3.26C77.48,25.96,77.41,27.14,77.14,28.35z M66.04,46.27c-0.14,0.62-0.3,1.13-0.49,1.53
			c-0.19,0.4-0.43,0.7-0.74,0.91c-0.31,0.21-0.68,0.32-1.13,0.33c-0.44,0.01-0.97-0.05-1.59-0.19s-1.12-0.31-1.5-0.51
			c-0.38-0.2-0.67-0.46-0.87-0.78c-0.2-0.32-0.31-0.7-0.31-1.14s0.07-0.97,0.21-1.59c0.14-0.62,0.3-1.14,0.49-1.55
			c0.19-0.41,0.45-0.72,0.77-0.93c0.32-0.2,0.7-0.32,1.13-0.36c0.43-0.03,0.96,0.02,1.58,0.16c0.62,0.14,1.13,0.32,1.52,0.54
			c0.39,0.22,0.68,0.49,0.87,0.81c0.19,0.32,0.28,0.71,0.28,1.16C66.25,45.11,66.18,45.65,66.04,46.27z"/>
	</g>
</g>
</svg>
