<!-- Generator: Adobe Illustrator 24.3.0, SVG Export Plug-In  -->
<svg version="1.1" xmlns="http://www.w3.org/2000/svg" xmlns:xlink="http://www.w3.org/1999/xlink" x="0px" y="0px"
	 width="106.02px" height="155.81px" viewBox="0 0 106.02 155.81"
	 style="overflow:visible;enable-background:new 0 0 106.02 155.81;" xml:space="preserve">
<defs>
</defs>
<g>
	<g>
		<g>
			<path d="M53.01,43.87c-5.67,0-10.29-6.15-10.29-13.7c0-6.56,3.5-12.21,8.33-13.45l0.31,0.92c-2.45,1.01-4.16,4.16-4.16,7.67
				c0,4.41,2.61,8,5.81,8s5.81-3.59,5.81-8c0-3.51-1.71-6.66-4.16-7.67l0.31-0.92c4.83,1.24,8.33,6.89,8.33,13.45
				C63.3,37.73,58.68,43.87,53.01,43.87z M47.69,19.72c-2.44,2.32-4,6.17-4,10.45c0,7.02,4.18,12.73,9.32,12.73
				s9.32-5.71,9.32-12.73c0-4.27-1.56-8.13-4-10.45c0.93,1.55,1.46,3.5,1.46,5.59c0,4.95-3.04,8.97-6.78,8.97s-6.78-4.03-6.78-8.97
				C46.23,23.22,46.76,21.27,47.69,19.72z"/>
		</g>
		<g>
			<g>
				<path d="M30.82,61c-5.89,0-11.36-2.06-14.64-5.52c-0.55-0.58-0.53-1.51,0.05-2.06c0.58-0.55,1.51-0.53,2.06,0.05
					c2.74,2.89,7.42,4.61,12.53,4.61s9.79-1.72,12.53-4.61c0.55-0.58,1.48-0.61,2.06-0.05c0.58,0.55,0.61,1.48,0.05,2.06
					C42.18,58.93,36.71,61,30.82,61z"/>
			</g>
			<g>
				<path d="M75.2,61c-5.89,0-11.36-2.06-14.64-5.52c-0.55-0.58-0.53-1.51,0.05-2.06c0.58-0.55,1.51-0.53,2.06,0.05
					c2.74,2.89,7.42,4.61,12.53,4.61c5.1,0,9.79-1.72,12.53-4.61c0.55-0.58,1.48-0.61,2.06-0.05c0.58,0.55,0.61,1.48,0.05,2.06
					C86.56,58.93,81.09,61,75.2,61z"/>
			</g>
		</g>
	</g>
	<path d="M106.02,53.01C106.02,23.78,82.24,0,53.01,0S0,23.78,0,53.01C0,71.98,9.93,89.18,26.14,98.7
		c-6.57,9.61-10.29,22.48-10.29,35.91v2.91H42.4c-0.04,0.39-0.09,0.78-0.13,1.16c-0.68,5.89-1.27,10.97,1.55,14.13
		c1.8,2.02,4.81,3,9.19,3s7.39-0.98,9.19-3c2.82-3.17,2.23-8.25,1.55-14.13c-0.04-0.37-0.09-0.77-0.13-1.16h26.55v-2.91
		c0-13.42-3.72-26.3-10.29-35.91C96.09,89.18,106.02,71.98,106.02,53.01z M52.52,152.88c-3.22-0.06-5.37-0.72-6.53-2.02
		c-1.95-2.19-1.46-6.46-0.83-11.86c0.35-3.01,0.74-6.41,0.74-9.97c0-14,3.71-22.86,6.62-23.77V152.88z M60.02,150.87
		c-1.16,1.3-3.3,1.96-6.53,2.02v-47.62c2.91,0.91,6.62,9.78,6.62,23.77c0,3.56,0.39,6.97,0.74,9.97
		C61.48,144.41,61.97,148.68,60.02,150.87z M74.24,95.14l-3.2,1.62l2.24,2.8c6.52,8.17,10.47,19.75,11,32.13H63.1
		c-0.05-0.88-0.07-1.76-0.07-2.66c0-12.98-3.51-26.78-10.02-26.78s-10.02,13.8-10.02,26.78c0,0.88-0.03,1.75-0.07,2.61l-21.18,0.05
		c0.54-12.38,4.48-23.96,11-32.13l2.24-2.8l-3.2-1.62C15.77,87.06,5.83,70.91,5.83,53.01c0-26.01,21.16-47.18,47.18-47.18
		s47.18,21.16,47.18,47.18C100.19,70.91,90.24,87.06,74.24,95.14z"/>
</g>
</svg>
