<!-- Generator: Adobe Illustrator 24.3.0, SVG Export Plug-In  -->
<svg version="1.1" xmlns="http://www.w3.org/2000/svg" xmlns:xlink="http://www.w3.org/1999/xlink" x="0px" y="0px"
	 width="134.09px" height="121px" viewBox="0 0 134.09 121" style="overflow:visible;enable-background:new 0 0 134.09 121;"
	 xml:space="preserve">
<defs>
</defs>
<path d="M134.01,117.57c-0.13-0.56-3.1-13.72-6.43-21.48c-2.45-5.71-6.79-7.01-10.62-8.16c-2.17-0.65-4.21-1.26-5.84-2.56
	c-3.63-2.91-2.09-12.92-2.08-13.02c0.02-0.13,0.03-0.27,0.04-0.4c12.74-4.66,22.01-18.65,22.01-35.14c0-20.29-14.04-36.8-31.3-36.8
	S68.5,16.51,68.5,36.8c0,16.56,9.36,30.6,22.18,35.2c-0.13,3.94-1.11,8.67-2.98,9.04c-4.63,0.93-19.56,1.42-20.65,1.46
	c-1.09-0.04-16.03-0.53-20.65-1.46c-1.89-0.38-2.85-5.05-2.98-9.04c12.82-4.6,22.18-18.64,22.18-35.2C65.59,16.51,51.55,0,34.3,0
	S3,16.51,3,36.8c0,16.49,9.27,30.48,22.01,35.14c0.01,0.13,0.01,0.27,0.04,0.41c0.02,0.1,1.58,10.09-2.08,13.01
	c-1.63,1.3-3.67,1.92-5.84,2.56c-3.83,1.15-8.17,2.44-10.62,8.16c-3.33,7.76-6.3,20.93-6.43,21.48c-0.18,0.81-0.07,1.68,0.31,2.36
	C0.77,120.6,1.37,121,2,121h130.09c0.63,0,1.23-0.4,1.6-1.08C134.07,119.25,134.19,118.37,134.01,117.57z M73.5,36.8
	c0-17.05,11.8-30.92,26.3-30.92s26.3,13.87,26.3,30.92s-11.8,30.92-26.3,30.92S73.5,53.84,73.5,36.8z M8,36.8
	C8,19.75,19.8,5.88,34.3,5.88s26.3,13.87,26.3,30.92S48.8,67.71,34.3,67.71S8,53.84,8,36.8z M4.74,115.66
	c1.09-4.39,3.13-12.01,5.25-16.93c1.57-3.67,4.56-4.57,8.02-5.6c2.38-0.71,4.84-1.45,7.02-3.2c4.84-3.87,4.56-12.87,4.17-16.84
	c1.66,0.32,3.36,0.5,5.1,0.5c1.76,0,3.48-0.18,5.15-0.51c0.23,4.18,1.35,10.91,6.16,11.88c5.1,1.02,20.71,1.52,21.38,1.54
	c0.02,0,0.04,0,0.06,0s0.04,0,0.06,0c0.66-0.02,16.27-0.52,21.38-1.54c4.81-0.96,5.93-7.7,6.16-11.88c1.68,0.33,3.4,0.51,5.15,0.51
	c1.74,0,3.44-0.17,5.1-0.5c-0.39,3.97-0.67,12.96,4.17,16.84c2.18,1.75,4.64,2.48,7.02,3.2c3.46,1.04,6.45,1.93,8.02,5.6
	c2.11,4.93,4.15,12.54,5.25,16.93H4.74z M40,35c0,2.21-1.79,4-4,4c-2.21,0-4-1.79-4-4s1.79-4,4-4C38.21,31,40,32.79,40,35z M54,35
	c0,2.21-1.79,4-4,4c-2.21,0-4-1.79-4-4s1.79-4,4-4C52.21,31,54,32.79,54,35z M86,35c0,2.21-1.79,4-4,4c-2.21,0-4-1.79-4-4
	s1.79-4,4-4C84.21,31,86,32.79,86,35z M100,35c0,2.21-1.79,4-4,4c-2.21,0-4-1.79-4-4s1.79-4,4-4C98.21,31,100,32.79,100,35z M98,22
	l-6,6 M92,29.5c-0.38,0-0.77-0.15-1.06-0.44c-0.59-0.59-0.59-1.54,0-2.12l6-6c0.59-0.59,1.54-0.59,2.12,0
	c0.59,0.59,0.59,1.54,0,2.12l-6,6C92.77,29.35,92.38,29.5,92,29.5z M87.5,29c-0.48,0-0.96-0.23-1.25-0.67l-4-6
	c-0.46-0.69-0.27-1.62,0.42-2.08c0.69-0.46,1.62-0.27,2.08,0.42l4,6c0.46,0.69,0.27,1.62-0.42,2.08C88.08,28.92,87.79,29,87.5,29z
	 M42.5,53c-3.52,0-6.71-3.09-7.06-3.44c-0.59-0.59-0.59-1.54,0-2.12c0.59-0.59,1.53-0.59,2.12,0C38.28,48.15,40.57,50,42.5,50
	c1.9,0,4-1.82,4.65-2.52c0.56-0.61,1.51-0.65,2.12-0.09c0.61,0.56,0.65,1.51,0.09,2.12C49.03,49.87,46.06,53,42.5,53z M83.58,52.3
	c-0.34,0-0.68-0.11-0.96-0.35c-0.64-0.53-0.73-1.47-0.2-2.11c0.31-0.37,3.12-3.65,6.67-3.83c3.52-0.19,6.86,2.74,7.23,3.07
	c0.61,0.56,0.66,1.5,0.11,2.12c-0.55,0.61-1.5,0.66-2.12,0.11c-0.76-0.68-3.14-2.41-5.06-2.31c-1.9,0.1-3.9,2.02-4.51,2.75
	C84.44,52.11,84.01,52.3,83.58,52.3z"/>
</svg>
