<!-- Generator: Adobe Illustrator 24.3.0, SVG Export Plug-In  -->
<svg version="1.1" xmlns="http://www.w3.org/2000/svg" xmlns:xlink="http://www.w3.org/1999/xlink" x="0px" y="0px"
	 width="159.58px" height="91.26px" viewBox="0 0 159.58 91.26" style="overflow:visible;enable-background:new 0 0 159.58 91.26;"
	 xml:space="preserve">
<defs>
</defs>
<g>
	<g>
		<circle cx="74.6" cy="36.14" r="2.97"/>
		<circle cx="84.98" cy="36.14" r="2.97"/>
		<path d="M82.86,45.39c-0.48,0.52-2.04,1.87-3.45,1.87c-1.43,0-3.13-1.37-3.66-1.9c-0.43-0.43-1.14-0.43-1.57,0
			c-0.43,0.43-0.43,1.14,0,1.57c0.26,0.26,2.63,2.55,5.24,2.55c2.64,0,4.84-2.32,5.08-2.59c0.41-0.45,0.38-1.15-0.07-1.57
			C83.98,44.92,83.28,44.94,82.86,45.39z"/>
	</g>
	<path d="M159.58,27.34c0-15.05-12.24-27.29-27.29-27.29c-10.38,0-19.43,5.83-24.04,14.39C101.81,5.69,91.45,0,79.79,0
		C68.13,0,57.77,5.69,51.34,14.43C46.72,5.88,37.68,0.05,27.29,0.05C12.24,0.05,0,12.29,0,27.34c0,8.32,3.83,16.2,10.32,21.37
		c-1.9,5.93-2.9,12.73-2.9,19.79l0,0.09c0,1.11,0.9,2.01,2.01,2.01h35.74c1.09,0,1.99-0.92,2.01-2.01c0-0.01,0-0.07,0-0.08
		c0-7.05-1-13.86-2.9-19.79c0.75-0.6,1.47-1.24,2.15-1.91c2.17,6.3,6.1,11.93,11.42,16.16c-2.46,7.67-3.76,16.47-3.76,25.6l0,0.11
		c0,1.43,1.16,2.6,2.6,2.6h46.24c1.41,0,2.57-1.19,2.6-2.6c0-0.02,0-0.09,0-0.11c0-9.12-1.3-17.93-3.76-25.6
		c5.31-4.23,9.24-9.86,11.42-16.16c0.68,0.67,1.4,1.31,2.15,1.91c-1.9,5.93-2.9,12.73-2.9,19.79l0,0.09c0,1.11,0.9,2.01,2.01,2.01
		h35.74c1.09,0,1.99-0.92,2.01-2.01c0-0.01,0-0.07,0-0.08c0-7.05-1-13.86-2.9-19.79C155.75,43.54,159.58,35.66,159.58,27.34z
		 M44.48,35.31c0,2.34,0.25,4.65,0.7,6.9c-1.28,1.54-2.77,2.94-4.44,4.13c-0.73,0.52-1.03,1.46-0.73,2.31
		c1.87,5.3,2.94,11.46,3.12,17.93H11.45c0.18-6.47,1.25-12.63,3.12-17.93c0.3-0.85,0-1.79-0.73-2.31c-6.16-4.37-9.83-11.47-9.83-19
		c0-12.84,10.44-23.28,23.28-23.28c9.68,0,17.99,5.94,21.5,14.36C46.04,23.44,44.48,29.19,44.48,35.31z M109.85,35.31
		c0,2.22-0.25,4.38-0.7,6.46c0.01,0.02,0.02,0.04,0.03,0.06c-1.61,7.21-5.84,13.69-11.99,18.05c-0.95,0.67-1.33,1.89-0.95,2.98
		c2.42,6.85,3.81,14.83,4.04,23.2H59.3c0.23-8.37,1.61-16.34,4.04-23.2c0.39-1.09,0-2.31-0.95-2.98
		c-6.15-4.36-10.38-10.84-11.99-18.05c0.01-0.02,0.02-0.04,0.03-0.06c-0.46-2.08-0.7-4.24-0.7-6.46c0-0.74,0.04-1.47,0.09-2.19
		c-0.03,0.12-0.06,0.24-0.09,0.36c0.11-1.84,0.39-3.64,0.82-5.38c0,0.12-0.02,0.24-0.02,0.36c0.67-2.86,1.74-5.56,3.16-8.04
		c-0.01-0.02-0.01-0.05-0.02-0.07c5.2-9.04,14.96-15.15,26.12-15.15c11.16,0,20.91,6.11,26.12,15.15c-0.01,0.02-0.01,0.05-0.02,0.07
		c1.42,2.48,2.49,5.18,3.16,8.04c-0.01-0.12-0.02-0.24-0.02-0.36c0.43,1.74,0.71,3.54,0.82,5.38c-0.03-0.12-0.06-0.24-0.09-0.36
		C109.81,33.85,109.85,34.58,109.85,35.31z M145,48.64c1.87,5.3,2.94,11.46,3.12,17.93h-31.68c0.18-6.47,1.25-12.63,3.12-17.93
		c0.3-0.85,0-1.79-0.73-2.31c-1.67-1.19-3.16-2.58-4.44-4.13c0.45-2.25,0.7-4.56,0.7-6.9c0-6.12-1.56-11.87-4.31-16.89
		c3.51-8.42,11.82-14.36,21.5-14.36c12.84,0,23.28,10.44,23.28,23.28c0,7.53-3.68,14.63-9.83,19C145,46.85,144.7,47.8,145,48.64z"/>
	<g>
		<path d="M124.48,28.82c0-1.04-0.85-1.89-1.89-1.89c-1.04,0-1.89,0.85-1.89,1.89c0,1.04,0.85,1.89,1.89,1.89
			C123.63,30.71,124.48,29.86,124.48,28.82z"/>
		<path d="M129.2,26.93c-1.04,0-1.89,0.85-1.89,1.89c0,1.04,0.85,1.89,1.89,1.89c1.04,0,1.89-0.85,1.89-1.89
			C131.08,27.78,130.24,26.93,129.2,26.93z"/>
		<path d="M125.54,34.48c-1.68,0-3.08,1.48-3.24,1.65c-0.26,0.29-0.24,0.73,0.04,1c0.29,0.26,0.73,0.25,1-0.04
			c0.31-0.33,1.3-1.19,2.19-1.19c0.91,0,1.99,0.87,2.33,1.21c0.28,0.28,0.72,0.28,1,0c0.28-0.28,0.28-0.72,0-1
			C128.71,35.94,127.2,34.48,125.54,34.48z"/>
	</g>
	<g>
		<path d="M32.85,28.82c0-1.04-0.85-1.89-1.89-1.89c-1.04,0-1.89,0.85-1.89,1.89c0,1.04,0.85,1.89,1.89,1.89
			C32.01,30.71,32.85,29.86,32.85,28.82z"/>
		<path d="M37.57,26.93c-1.04,0-1.89,0.85-1.89,1.89c0,1.04,0.85,1.89,1.89,1.89s1.89-0.85,1.89-1.89
			C39.46,27.78,38.61,26.93,37.57,26.93z"/>
		<path d="M36.6,33.61h-4.66c-0.41,0-0.74,0.33-0.74,0.74c0,0.41,0.33,0.74,0.74,0.74h4.66c0.41,0,0.74-0.33,0.74-0.74
			C37.34,33.94,37.01,33.61,36.6,33.61z"/>
	</g>
</g>
</svg>
