<!-- Generator: Adobe Illustrator 24.3.0, SVG Export Plug-In  -->
<svg version="1.1" xmlns="http://www.w3.org/2000/svg" xmlns:xlink="http://www.w3.org/1999/xlink" x="0px" y="0px"
	 width="154.43px" height="151.24px" viewBox="0 0 154.43 151.24"
	 style="overflow:visible;enable-background:new 0 0 154.43 151.24;" xml:space="preserve">
<defs>
</defs>
<g>
	<path d="M149.67,8.88c-1.23-3.59-4.57-6.23-8.58-6.37L67.01,0.01c-5.19-0.18-9.55,3.9-9.72,9.09L56.64,28L6.61,34.16
		c-4.11,0.51-7.06,4.28-6.55,8.39l10.92,88.72c0.47,3.8,3.73,6.61,7.47,6.61c0.3,0,0.61-0.02,0.92-0.06l10.7-1.32l1.64,8.62
		c0.69,3.6,3.86,6.12,7.4,6.12c0.46,0,0.93-0.04,1.4-0.13l57.6-10.98c4.07-0.78,6.76-4.74,5.98-8.8l-2.68-14.04l41.08,1.39
		c4.67,0.16,8.59-3.51,8.75-8.18l3.18-93.72C154.54,13.34,152.58,10.31,149.67,8.88z M150.17,12.04c1.09,1.33,1.74,3.07,1.67,4.94
		l-3.12,91.84c-0.14,4.02-3.43,7.19-7.34,7.05l-74.95-2.54c-0.53-0.02-1.06-0.16-1.61-0.4c0.3,0.08,0.6,0.14,0.9,0.15l74.95,2.54
		c3.99,0.14,7.36-3.08,7.5-7.16l3.1-91.3c0.05-1.55-0.37-3.01-1.13-4.23l0.02-0.69C150.18,12.17,150.17,12.11,150.17,12.04z
		 M150.14,13.23c0.66,1.15,1.03,2.49,0.98,3.92l-3.1,91.3c-0.14,4-3.43,7.14-7.33,7.01l-74.95-2.54c-0.48-0.02-0.97-0.14-1.46-0.34
		l72.99,2.48c0.45,0.02,0.89-0.01,1.32-0.06l1.4,0.05c3.99,0.14,7.36-3.06,7.49-7.12l3.08-90.82c0.03-1-0.13-1.97-0.46-2.85
		L150.14,13.23z M150.09,14.7c0.23,0.75,0.35,1.55,0.32,2.38l-3.08,90.82c-0.13,3.98-3.42,7.1-7.33,6.97l-0.56-0.02
		c4.18-0.84,7.41-4.46,7.56-8.9L150.09,14.7z M71.33,4.2l67.08,2.28c4.14,0.14,7.41,3.64,7.27,7.78l-3.02,89.1
		c-0.14,4.14-3.64,7.41-7.78,7.27l-67.08-2.28L71.33,4.2z M68.59,4.16c0.27-0.02,0.55-0.03,0.83-0.02l0.66,0.02l-3.53,104.15
		l-0.66-0.02c-0.28-0.01-0.55-0.04-0.82-0.08L68.59,4.16z M61.64,11.41c0.12-3.42,2.52-6.24,5.69-7.04l-3.51,103.55
		c-3.1-1.01-5.32-3.99-5.2-7.41L61.64,11.41z M19.22,136.57c-0.25,0.03-0.51,0.05-0.77,0.05c-3.16,0-5.84-2.37-6.23-5.51L1.3,42.39
		c-0.2-1.65,0.25-3.3,1.29-4.62c1.03-1.33,2.52-2.17,4.17-2.37l49.84-6.14L56.17,41.8l-35.22,6.72c-4.07,0.78-6.76,4.74-5.98,8.8
		l14.86,77.95L19.22,136.57z M102.86,131.56c0.31,1.64-0.04,3.31-0.98,4.7c-0.95,1.39-2.37,2.33-4.01,2.64l-57.6,10.98
		c-0.39,0.07-0.78,0.11-1.17,0.11c-3.01,0-5.6-2.14-6.17-5.1L16.2,57.08c-0.31-1.64,0.04-3.31,0.98-4.7
		c0.95-1.39,2.37-2.33,4.01-2.64l34.94-6.66l-1.98,58.47l-0.12,2.18c-0.16,4.71,5.06,12.12,9.78,12.28l36.32,1.23L102.86,131.56z
		 M149.37,110.44c-0.12,3.63-3.18,6.48-6.81,6.36l-78.68-2.67c-1.32-0.04-2.78-1-4.1-2.37c1.05,0.45,2.2,0.73,3.41,0.77l0.67,0.02
		c0.86,0.56,1.74,0.9,2.58,0.93l74.95,2.54c3.99,0.14,7.36-3.1,7.5-7.2L152,16.99c0.07-1.99-0.64-3.82-1.83-5.2
		c0-0.12,0-0.24-0.01-0.36c1.51,1.26,2.45,3.17,2.38,5.28L149.37,110.44z"/>
</g>
</svg>
