<!-- Generator: Adobe Illustrator 24.3.0, SVG Export Plug-In  -->
<svg version="1.1" xmlns="http://www.w3.org/2000/svg" xmlns:xlink="http://www.w3.org/1999/xlink" x="0px" y="0px" width="92.87px"
	 height="150.03px" viewBox="0 0 92.87 150.03" style="overflow:visible;enable-background:new 0 0 92.87 150.03;"
	 xml:space="preserve">
<defs>
</defs>
<g>
	<path d="M92.58,45.54c-1.14-1.58-2.41-3.16-3.79-4.68c0.93-1.83,1.75-3.68,2.44-5.5c0.23-0.62,0.05-1.31-0.46-1.73
		c-1.52-1.23-3.15-2.42-4.87-3.54c0.42-2.01,0.74-4,0.94-5.95c0.07-0.65-0.29-1.28-0.89-1.55c-1.78-0.8-3.67-1.53-5.62-2.16
		c-0.11-2.05-0.32-4.06-0.63-5.99c-0.1-0.65-0.61-1.16-1.26-1.26c-1.93-0.31-3.94-0.52-5.99-0.63c-0.64-1.95-1.36-3.84-2.16-5.62
		c-0.27-0.6-0.9-0.96-1.55-0.89c-1.94,0.2-3.94,0.51-5.95,0.94c-1.12-1.72-2.31-3.35-3.54-4.87c-0.42-0.51-1.11-0.7-1.73-0.46
		c-1.83,0.69-3.67,1.52-5.5,2.45c-1.53-1.37-3.1-2.64-4.68-3.79c-0.53-0.39-1.25-0.39-1.79,0c-1.58,1.14-3.16,2.42-4.68,3.79
		c-1.83-0.93-3.68-1.75-5.5-2.45c-0.61-0.23-1.31-0.05-1.73,0.46c-1.24,1.52-2.42,3.15-3.54,4.87c-2.01-0.42-4-0.74-5.95-0.94
		c-0.65-0.07-1.28,0.29-1.55,0.89c-0.8,1.78-1.53,3.67-2.16,5.62c-2.05,0.11-4.06,0.32-5.99,0.63c-0.65,0.11-1.16,0.61-1.26,1.26
		c-0.31,1.93-0.52,3.94-0.63,5.99c-1.95,0.64-3.84,1.36-5.62,2.16c-0.6,0.27-0.96,0.89-0.89,1.55c0.2,1.94,0.51,3.94,0.94,5.95
		c-1.72,1.12-3.35,2.31-4.87,3.54c-0.51,0.42-0.7,1.11-0.46,1.73c0.69,1.83,1.52,3.67,2.44,5.5c-1.37,1.53-2.64,3.1-3.79,4.68
		c-0.39,0.53-0.39,1.25,0,1.79c1.14,1.58,2.42,3.16,3.79,4.68c-0.93,1.83-1.75,3.68-2.45,5.5c-0.23,0.62-0.05,1.31,0.46,1.73
		c1.52,1.23,3.15,2.42,4.87,3.54c-0.42,2.01-0.74,4.01-0.94,5.95c-0.07,0.65,0.29,1.28,0.89,1.55c1.78,0.8,3.67,1.53,5.62,2.16
		c0.11,2.05,0.32,4.06,0.63,5.99c0.11,0.65,0.61,1.16,1.26,1.26c1.93,0.31,3.94,0.52,5.99,0.63c0.64,1.95,1.36,3.84,2.16,5.62
		c0.27,0.6,0.9,0.96,1.55,0.89c1.64-0.17,3.31-0.42,4.99-0.74l-16.21,52.5c-0.25,0.67,0.01,1.43,0.61,1.81
		c0.6,0.39,1.39,0.3,1.9-0.2l10.88-10.81l-2.48,18.9c-0.1,0.75,0.37,1.46,1.1,1.67c0.14,0.04,0.28,0.06,0.42,0.06
		c0.59,0,1.14-0.34,1.39-0.9l7.78-17.41l3.61,14.9c0.17,0.7,0.79,1.19,1.51,1.17c0.72-0.01,1.33-0.52,1.47-1.23l6.06-30.14
		l6.06,30.14c0.14,0.7,0.75,1.21,1.47,1.23c0.75,0.02,1.35-0.47,1.51-1.17l3.61-14.9l7.78,17.41c0.31,0.69,1.08,1.05,1.81,0.85
		c0.73-0.21,1.2-0.92,1.1-1.67l-2.48-18.9l10.88,10.81c0.51,0.51,1.3,0.59,1.9,0.2c0.6-0.39,0.86-1.14,0.61-1.81l-16.1-52.22
		c1.16,0.19,2.3,0.35,3.41,0.46c0.65,0.06,1.28-0.29,1.55-0.89c0.8-1.78,1.53-3.67,2.16-5.62c2.05-0.11,4.06-0.32,5.99-0.63
		c0.65-0.1,1.16-0.61,1.26-1.26c0.31-1.93,0.52-3.94,0.63-5.99c1.95-0.64,3.84-1.36,5.62-2.16c0.6-0.27,0.96-0.89,0.89-1.55
		c-0.2-1.94-0.51-3.94-0.94-5.95c1.72-1.12,3.35-2.31,4.87-3.54c0.51-0.42,0.7-1.11,0.46-1.73c-0.69-1.83-1.52-3.67-2.44-5.5
		c1.37-1.53,2.64-3.1,3.79-4.68C92.96,46.79,92.96,46.07,92.58,45.54z M87.98,35.3c-0.52,1.28-1.12,2.56-1.76,3.84
		c-0.39-2.15-0.94-4.25-1.66-6.27C85.74,33.66,86.9,34.46,87.98,35.3z M83.68,24.93c-0.17,1.35-0.41,2.73-0.7,4.11
		c-0.92-1.95-2-3.81-3.21-5.57C81.11,23.92,82.43,24.4,83.68,24.93z M76.84,16.02c0.19,1.35,0.31,2.74,0.39,4.15
		c-1.39-1.63-2.9-3.15-4.52-4.54C74.11,15.72,75.5,15.84,76.84,16.02z M67.94,9.19c0.53,1.24,1,2.55,1.44,3.87
		c-1.74-1.2-3.57-2.27-5.49-3.19C65.25,9.59,66.61,9.35,67.94,9.19z M57.56,4.89c0.82,1.06,1.61,2.19,2.38,3.34
		c-1.97-0.7-4.02-1.25-6.12-1.63C55.07,5.98,56.32,5.4,57.56,4.89z M46.43,3.43c1.07,0.81,2.13,1.7,3.17,2.62
		c-1.05-0.08-2.1-0.14-3.17-0.14s-2.13,0.05-3.17,0.14C44.3,5.13,45.36,4.24,46.43,3.43z M35.3,4.89c1.24,0.51,2.49,1.09,3.74,1.71
		c-2.1,0.39-4.14,0.93-6.12,1.63C33.69,7.08,34.48,5.95,35.3,4.89z M24.93,9.19c1.33,0.17,2.68,0.41,4.04,0.68
		c-1.92,0.92-3.75,1.99-5.49,3.19C23.93,11.73,24.41,10.43,24.93,9.19z M16.02,16.02c1.34-0.19,2.73-0.31,4.13-0.39
		c-1.63,1.39-3.14,2.91-4.52,4.54C15.72,18.76,15.84,17.37,16.02,16.02z M13.09,23.48c-1.21,1.76-2.29,3.62-3.21,5.57
		c-0.28-1.38-0.53-2.76-0.7-4.11C10.44,24.4,11.75,23.92,13.09,23.48z M8.31,32.88c-0.71,2.02-1.27,4.12-1.66,6.27
		c-0.64-1.28-1.24-2.56-1.76-3.84C5.97,34.46,7.12,33.66,8.31,32.88z M3.43,46.43c0.84-1.11,1.76-2.2,2.71-3.27
		C6.05,44.21,6,45.28,6,46.35c0,1.14,0.06,2.26,0.15,3.37C5.19,48.64,4.27,47.55,3.43,46.43z M4.89,57.57
		c0.52-1.29,1.13-2.59,1.78-3.89c0.4,2.19,0.97,4.31,1.71,6.36C7.17,59.24,5.99,58.42,4.89,57.57z M9.19,67.94
		c0.17-1.39,0.43-2.81,0.72-4.23c0.96,2.01,2.08,3.93,3.34,5.74C11.86,68.98,10.49,68.49,9.19,67.94z M16.02,76.84
		c-0.19-1.41-0.32-2.86-0.4-4.33c1.45,1.71,3.04,3.29,4.75,4.73C18.89,77.16,17.43,77.04,16.02,76.84z M24.93,83.68
		c-0.55-1.31-1.05-2.69-1.52-4.09c1.84,1.27,3.78,2.4,5.82,3.36C27.79,83.25,26.34,83.5,24.93,83.68z M76.18,133.18l-9.17-9.11
		c-0.46-0.46-1.17-0.57-1.75-0.29c-0.59,0.29-0.92,0.92-0.84,1.57l1.7,12.96l-5.33-11.93c-0.27-0.6-0.88-0.95-1.53-0.9
		c-0.65,0.06-1.19,0.53-1.35,1.16l-3.05,12.56l-6.2-30.83c-0.14-0.71-0.77-1.23-1.5-1.23c-0.73,0-1.35,0.51-1.5,1.23l-6.2,30.83
		l-3.05-12.56c-0.15-0.63-0.69-1.1-1.35-1.16c-0.65-0.06-1.27,0.3-1.53,0.9l-5.33,11.93l1.7-12.96c0.08-0.65-0.25-1.28-0.84-1.57
		c-0.59-0.29-1.29-0.18-1.75,0.29l-9.17,9.11l14.49-47.82c0.12-0.32,0.12-0.67,0.02-0.99c4.3,1.56,8.93,2.41,13.76,2.41
		c5.34,0,10.43-1.04,15.09-2.92c-0.12,0.33-0.13,0.7-0.01,1.04L76.18,133.18z M67.94,83.68c-1.4-0.18-2.84-0.42-4.31-0.73
		c2.04-0.96,3.99-2.09,5.83-3.36C68.99,80.99,68.49,82.37,67.94,83.68z M76.84,76.84c-1.41,0.2-2.87,0.32-4.34,0.41
		c1.71-1.44,3.3-3.03,4.75-4.73C77.16,73.99,77.04,75.44,76.84,76.84z M46.43,85.26c-21.45,0-38.91-17.45-38.91-38.91
		c0-21.45,17.45-38.91,38.91-38.91c21.45,0,38.91,17.45,38.91,38.91C85.34,67.8,67.89,85.26,46.43,85.26z M79.62,69.44
		c1.26-1.81,2.39-3.73,3.34-5.74c0.29,1.42,0.55,2.84,0.72,4.23C82.38,68.49,81.01,68.98,79.62,69.44z M84.49,60.04
		c0.74-2.05,1.31-4.18,1.71-6.36c0.65,1.29,1.26,2.59,1.78,3.89C86.87,58.42,85.7,59.24,84.49,60.04z M86.72,49.72
		c0.09-1.11,0.15-2.24,0.15-3.37c0-1.07-0.05-2.13-0.14-3.19c0.95,1.08,1.87,2.17,2.71,3.27C88.6,47.55,87.68,48.64,86.72,49.72z"/>
	<path d="M46.43,10.37c-19.74,0-35.79,16.06-35.79,35.79S26.7,81.96,46.43,81.96S82.23,65.9,82.23,46.16S66.17,10.37,46.43,10.37z
		 M46.43,80.96c-19.19,0-34.79-15.61-34.79-34.79s15.61-34.79,34.79-34.79s34.79,15.61,34.79,34.79S65.62,80.96,46.43,80.96z"/>
	<path d="M46.43,28.47c-9.76,0-17.69,7.94-17.69,17.69c0,9.76,7.94,17.69,17.69,17.69s17.69-7.94,17.69-17.69
		C64.13,36.41,56.19,28.47,46.43,28.47z M46.43,62.86c-9.21,0-16.69-7.49-16.69-16.69c0-9.2,7.49-16.69,16.69-16.69
		s16.69,7.49,16.69,16.69C63.13,55.37,55.64,62.86,46.43,62.86z"/>
</g>
</svg>
